<?xml version="1.0" encoding="utf-8"?>
<!-- Generator: Adobe Illustrator 24.0.2, SVG Export Plug-In . SVG Version: 6.00 Build 0)  -->
<svg version="1.1" id="Calque_1" xmlns="http://www.w3.org/2000/svg" xmlns:xlink="http://www.w3.org/1999/xlink" x="0px" y="0px"
	 viewBox="0 0 747 547" style="enable-background:new 0 0 747 547;" xml:space="preserve">
<style type="text/css">
	.st0{fill:#E5E6FA;}
	.st1{fill:#450077;}
	.st2{fill:#FFFFFF;}
	.st3{fill:#303C60;}
	.st4{fill:#453877;}
	.st5{fill:#372977;}
	.st6{fill:#F09959;}
	.st7{fill:#F2E5DE;}
	.st8{fill:#EFC300;}
	.st9{fill:#EFC37F;}
	.st10{fill:#E38540;}
	.st11{fill:#F5DC95;}
	.st12{fill:#454777;}
	.st13{fill:#74B570;}
	.st14{fill:#9CD499;}
	.st15{fill:#453777;}
	.st16{fill:#A86B48;}
	.st17{fill:#7A4E34;}
	.st18{fill:#EFC359;}
	.st19{opacity:0.5;fill:#FFFFFF;}
	.st20{clip-path:url(#SVGID_1_);fill:#450077;}
	.st21{clip-path:url(#SVGID_1_);fill:#E5E6FA;}
	.st22{clip-path:url(#SVGID_1_);fill:#EFC300;}
	.st23{clip-path:url(#SVGID_1_);fill:#FFFFFF;}
	.st24{clip-path:url(#SVGID_1_);fill:#E7F3FE;}
	.st25{fill:#FAE8B6;}
	.st26{fill:#9EC8FF;}
	.st27{fill:#3E6BAB;}
</style>
<title>Illustration</title>
<g>
	<path class="st0" d="M99.8,99.5c103.1-38.3,207.9-4.4,278.9,69.3c71.1,73.7,220.2-50.9,299.3,22.7c54,50.2,29.3,179.3-44.8,235.2
		c-100.6,76-475.4,78.3-537.6,52.2C-10.5,434.3,95,351.8,45.4,272.7C-13.1,179.3,54.3,116.4,99.8,99.5z"/>
	<path class="st1" d="M680.1,456.9c-51.6-2.5-227.1,1.8-280.5,3.4c-53.4,1.7-115.4-2.2-147.6-7.9c-32.2-5.7-218.3,0.5-209.8,15.8
		c8.4,15.3,82.9,6.8,167.3,13c84.4,6.1,274.4-0.8,317.2,0c42.8,0.8,82.1-1.5,137.3-4.6C719.2,473.5,710,458.4,680.1,456.9z"/>
	<g>
		<path class="st1" d="M568.2,120.6c0.2-1.8,0.3-3.7,0.3-5.6c0-1,0-2-0.1-3l-9.2-3c-0.6-3.9-1.7-7.6-3.2-11l6.1-7.5
			c-1.4-2.5-3-4.8-4.8-7l-9.2,3c-2.7-2.7-5.7-5.1-9.1-7l0.5-9.6c-2.6-1.2-5.2-2.1-8-2.8l-5.7,7.8c-2.2-0.4-4.5-0.6-6.8-0.6
			c-1.6,0-3.1,0.1-4.7,0.3l-5.2-8.1c-2.8,0.6-5.5,1.4-8.2,2.4l0,9.7c-3.5,1.7-6.6,3.9-9.4,6.5l-9-3.5c-1.9,2.1-3.7,4.3-5.2,6.7
			l5.7,7.8c-1.8,3.4-3.1,7-3.8,10.8l-9.3,2.5c-0.2,1.8-0.3,3.7-0.3,5.6c0,1,0,2,0.1,3l9.2,3c0.6,3.9,1.7,7.6,3.2,11l-6.1,7.5
			c1.4,2.5,3,4.8,4.8,7l9.2-3c2.7,2.7,5.7,5.1,9.1,7l-0.5,9.6c2.6,1.2,5.2,2.1,8,2.8l5.7-7.8c2.2,0.4,4.5,0.6,6.8,0.6
			c1.6,0,3.1-0.1,4.7-0.3l5.2,8.1c2.8-0.6,5.5-1.4,8.2-2.4l0-9.7c3.5-1.7,6.6-3.9,9.4-6.5l9,3.5c1.9-2.1,3.7-4.3,5.2-6.7l-5.7-7.8
			c1.8-3.4,3.1-7,3.8-10.8L568.2,120.6z M519,134.4c-10.7,0-19.4-8.7-19.4-19.4c0-10.7,8.7-19.4,19.4-19.4
			c10.7,0,19.4,8.7,19.4,19.4C538.4,125.7,529.7,134.4,519,134.4z"/>
		<g>
			<path class="st2" d="M545.5,137.4c-0.2,0-0.5-0.1-0.6-0.2c-0.4-0.4-0.5-1-0.1-1.4c4.8-5.8,7.5-13.2,7.5-20.8
				c0-3.6-0.6-7.2-1.8-10.6c-0.2-0.5,0.1-1.1,0.6-1.3c0.5-0.2,1.1,0.1,1.3,0.6c1.2,3.6,1.9,7.4,1.9,11.2c0,8-2.8,15.9-8,22
				C546.1,137.3,545.8,137.4,545.5,137.4z"/>
		</g>
		<g>
			<path class="st2" d="M542.7,91.6c-0.2,0-0.5-0.1-0.7-0.3c-3.2-3.1-7-5.4-11.2-6.9c-0.5-0.2-0.8-0.8-0.6-1.3
				c0.2-0.5,0.8-0.8,1.3-0.6c4.4,1.6,8.4,4.1,11.9,7.3c0.4,0.4,0.4,1,0,1.4C543.2,91.5,542.9,91.6,542.7,91.6z"/>
		</g>
		<g>
			<path class="st2" d="M511.5,83.6c-0.4,0-0.9-0.3-1-0.8c-0.1-0.5,0.2-1.1,0.7-1.2c2.8-0.7,5.6-1,8.5-1c0.6,0,1,0.4,1,1s-0.4,1-1,1
				c-2.7,0-5.4,0.3-8,1C511.7,83.5,511.6,83.6,511.5,83.6z"/>
		</g>
	</g>
	<rect x="179.9" y="66.7" class="st1" width="309.2" height="185.7"/>
	<rect x="195" y="71.2" class="st2" width="290.9" height="170.5"/>
	<g>
		<path class="st3" d="M443,159.3c13.9-13.2,37.6-12.9,37.1,7.2c-0.5,20.1,1.2,22,6.9,32.5c19.8,36.6-23.6,34.4-41.7,35.6
			c-18.1,1.2-16.6-32.9-13.4-51.8C435.1,164,439,163.2,443,159.3z"/>
		<path class="st4" d="M449.5,274.5c-4.4,37.3-12.5,64.9-13.4,82.6c-0.9,17.7-4.5,87.4-4.5,87.4s9.9-0.7,10.8-2.2
			s18.6-40.8,17.7-65.1c-0.9-24.3,17.7-61.2,17.7-61.2l-4.5-36.2L449.5,274.5z"/>
		<path class="st5" d="M453.7,290.8l-7,2.9c-1.9,11.8-4,22.5-5.8,31.9c11.1,7.2,16.8,31,19.2,45.5c1.2-16.3,8.9-36,13.7-46.9
			L453.7,290.8z"/>
		<path class="st4" d="M485.8,270.8c0,0,15,19.1,14.5,40.8c-0.7,33-4.3,42.4,1.9,77c2.4,13.5-5.4,57.7-5.4,57.7s-6.7,0.5-10.3-1.3
			c0.3-3.2-4.3-56.1-13.3-80.4c-4.4-11.8-10.5-44.7-13.8-63.6c-3.3-18.9-3.9-22.8-2.7-22.8S485.8,270.8,485.8,270.8z"/>
		<path class="st6" d="M400.5,217.7c0,0,0.7-9.9-0.4-12.9c-1.1-3.1-10.3-5.7-10.3-5.7s-0.4,14.1,0.5,15.9c0.9,1.7,6.4,6.7,6.4,6.7
			L400.5,217.7z"/>
		<path class="st7" d="M452.2,210.5c-21.1,22.7-27.9,32.2-29.5,32.2c-5-8.8-21.6-27.5-21.6-27.5l-7.1,4.6c0,0,16.4,42.7,26.8,43.2
			c10.4,0.4,31.5-14.7,31.8-16.5C452.8,244.7,452.2,210.5,452.2,210.5z"/>
		<path class="st8" d="M430.3,260.7c10.3-4.2,22.1-13,22.3-14.3c0.3-1.7-0.3-36-0.3-36c-4.6,4.9-8.6,9.3-12.1,13.2
			C436.4,237.7,436.6,253,430.3,260.7z"/>
		<path class="st9" d="M473.6,195.6c0,0,20.2,10.1,24.5,28c4.4,17.9-8.6,40-10.2,51.8c-1.6,11.8-38.4,13.9-38.4,1.2
			c0-12.1-9.2-37.8-8.7-44.3c1.2-15.3,23.7-34.1,23.7-34.1L473.6,195.6z"/>
		<path class="st6" d="M467.8,172.4l8.7,26.7c0,0-9.2,7.1-25,24.3c0.6-11.4,10.2-23.8,10.2-23.8l-6.5-25.2L467.8,172.4z"/>
		<path class="st10" d="M471.8,184.9l-4-12.4l-12.8,1.9l6.5,25.2c0,0-0.6,1-1.6,2.6C466.1,197.6,469.9,191.9,471.8,184.9z"/>
		<path class="st6" d="M463,178.4c-2.3,8.5-11.4,13.2-17.8,11.4c-6.4-1.8-7.8-9.3-5.5-17.8c2.3-8.5,9.4-13.9,15.8-12.2
			C462,161.6,465.3,170,463,178.4z"/>
		<path class="st9" d="M447.9,264.6c2.8,17.8-7.6,55.7-7.6,55.7s6.2,1.4,24.8-0.4c18.6-1.8,26.8-20.4,29.6-20.9
			c2.8-0.5,4.2,17.3,5.6,18.7c1.4,1.4,1.6-22.5-2-31.8c-6.4-16.6-5.1-23.7-2.8-33.8C499.8,234.2,447.9,264.6,447.9,264.6z"/>
		<path class="st4" d="M432,435.8c1.7,6.8-1.6,12.2-6.1,16.1c-3.6,3.2-14.7,4.6-14.1,6.2c0.5,1.6,13.6,2.1,18,1.4
			c4.4-0.7,5.6-2.8,11.1-2.8c3.6,0,4.3-2.9,2.7-6.5c-1.6-3.6-2.2-5.6-0.7-8.8C444.3,438.1,432,435.8,432,435.8z"/>
		<path class="st4" d="M497.3,435.8c-0.3,7.1-1.1,12.3,0.6,15.6c6.7,5.6,12.3,12,10.1,12.4c-10.1,2.1-14-4-19.7-5.7
			c-7-2.1,0.7-11-2.1-22.3c-1.5-6.3,10.6-4.8,10.6-4.8L497.3,435.8z"/>
		<path class="st8" d="M499.8,291.7c-0.4-2.2-0.9-4.2-1.5-5.8c-6.4-16.6-5.1-23.7-2.8-33.8c0.2-0.8,0.3-1.5,0.2-2.1
			c0.5-1.8,1-3.6,1.5-5.5l-2.2-19.6l-15.7-18.6c-11.7,17.2-3.8,38.6-5.6,50.4c-1.8,11.8-21.4,26.8-21.4,26.8l0.6,4.2
			c0.9,5.7,6.2,9.7,12,8.9c8.1-1.1,18.7-3.4,23.5-7.8C493.1,284.7,497.2,288,499.8,291.7z"/>
		<path class="st6" d="M457.1,282.9c0,0-8.7,2.4-9.7,3c-1,0.5-1.6,3.4-1.6,3.4s-5,4.3-3.1,5.8c1.9,1.5,5.3,5.4,9.8,3.6
			c2.8-1.1,4.9-11.2,6.7-11.3C461,287.3,457.1,282.9,457.1,282.9z"/>
		<path class="st7" d="M481.7,204.1c9.3,0.3,17.7,17,20.6,31.5c2.9,14.5,6,35.2,6,35.2s-15.4,12.1-30.6,15.7
			c-13.3,3.1-20,4.3-20,4.3l-2.7-7.6l31.7-18.6c0,0-11.7-22-12.8-38.6C472.7,209.4,474.6,203.9,481.7,204.1z"/>
		
			<rect x="370.4" y="197.9" transform="matrix(0.9805 -0.1967 0.1967 0.9805 -32.9398 79.203)" class="st11" width="23.6" height="15"/>
		<path class="st6" d="M394.9,216.5c0.3-6.1-2.7-14.4-4.4-14.4c-1.7,0,0.5,5.4-0.4,9C389.6,213.1,394.9,216.5,394.9,216.5z"/>
		<path class="st3" d="M441.4,162.5c0.5,16.7,20,15.4,25.3,14.4c5.3-1-6.5,35.1,3.7,37.2c7.5,1.5,5.8-10.1,14.1-9.4
			c3.7,0.3,7.3,6,7.3,6s-0.6-3.5-3.4-6c-2.8-2.5-10.1-18-12.1-29c-1.9-11.1-15-18.2-18.9-18.4s-13.3,4.2-13.3,4.2L441.4,162.5z"/>
		<g>
			<path class="st3" d="M470.2,217.9c-0.3,0-0.5,0-0.8-0.1c-3.3-0.7-4.8-4.1-5-10.8c-0.1-5.7,0.8-13,1.8-20.7
				c0.4-3.1,0.8-6.4,1.2-9.5c0-0.3,0.3-0.5,0.5-0.4c0.3,0,0.5,0.3,0.4,0.5c-0.3,3.1-0.8,6.4-1.2,9.5c-1.9,15-3.7,29.1,2.4,30.4
				c0.2,0,0.4,0.1,0.6,0.1c3.5,0,6.7-6.9,8.5-13.5c0.1-0.3,0.3-0.4,0.6-0.3c0.3,0.1,0.4,0.3,0.3,0.6
				C478.5,208.1,475.2,217.9,470.2,217.9z"/>
		</g>
		<g>
			<path class="st3" d="M468.9,221.8c-1.1,0-2.1-0.4-2.9-1.3c-6.6-7-0.1-42.2,0.2-43.7c0-0.3,0.3-0.4,0.6-0.4c0.3,0,0.4,0.3,0.4,0.6
				c-0.1,0.4-6.8,36.2-0.5,42.8c0.7,0.8,1.6,1.1,2.6,0.9c3.4-0.5,5.4-5.1,7.2-9.3c1.7-4,3.3-7.8,6.2-7.7c0.3,0,0.5,0.2,0.5,0.5
				c0,0.3-0.2,0.5-0.5,0.5c0,0,0,0-0.1,0c-2.1,0-3.6,3.4-5.2,7.1c-1.9,4.4-4,9.3-8,9.8C469.3,221.8,469.1,221.8,468.9,221.8z"/>
		</g>
		<path class="st6" d="M467.5,180.1c-1.4,1.8-3.5,2.4-4.8,1.4c-1.3-1-1.2-3.2,0.2-5c1.4-1.8,3.5-2.4,4.8-1.4
			C468.9,176.1,468.8,178.3,467.5,180.1z"/>
	</g>
	<g>
		<path class="st3" d="M316.3,241.8c4.8,9.5,0.8,20.4-8.5,24.3c-9.4,3.9-19.7,1.7-24.4-7.8c-4.8-9.5-1.2-20.9,7.9-25.4
			C300.3,228.3,311.5,232.3,316.3,241.8z"/>
		<g>
			<path class="st3" d="M290.7,267.2c-1,0-3.1-0.4-5.7-2.7c-2.2-1.9-3.7-4.8-4.4-8.3c-0.8-4.3-0.3-9.3,1.6-14.7
				c0.1-0.3,0.4-0.4,0.6-0.3c0.3,0.1,0.4,0.4,0.3,0.6c-1.8,5.3-2.4,10.1-1.6,14.2c0.6,3.2,2.1,5.9,4,7.7c3.3,3,5.6,2.4,5.6,2.4
				c0.3-0.1,0.5,0.1,0.6,0.3c0.1,0.3-0.1,0.5-0.3,0.6C291.4,267.2,291.1,267.2,290.7,267.2z"/>
		</g>
		<g>
			<path class="st12" d="M305.2,278.8c5.4,1.2,12.2,16.2,15.6,25.9c3.4,9.7,9.1,21.8,12.8,25.5c3.7,3.7,28.3,12.4,28.3,12.4
				s-60.8,0.1-59.5,0C303.7,342.4,305.2,278.8,305.2,278.8z"/>
			<path class="st5" d="M337.4,337.7c-3.3-0.5-15.3,1.1-10.2-1.1c5.1-2.1,4.4-4.9,4.4-4.9s-7.2,6.1-8.6,0.8
				c-1.1-4.6-1.6-20.7-5.8-36.9c-3.5-8-8.2-16-12-16.9c0,0-0.1,5.7-0.4,13.7c1.5,17.7,4,43.6,4.7,50.1c8.1,0,21.5,0,32.8,0l7.5-0.4
				C349.8,342.2,340.8,338.2,337.4,337.7z"/>
			<path class="st12" d="M285.3,275.4c0,0-17.2,9.6-21.2,11.7c-4,2,11.2,62,14.6,64.6c3.4,2.6,33.2,0.4,36.6-2.8
				c3.4-3.2-2.6-13.2,0.3-33.1c2.9-19.9-9-37.1-10.5-37c-1.5,0-11.5-3.3-11.5-3.3H285.3z"/>
			<path class="st5" d="M278.7,351.7c3.4,2.6,24.7,2.6,33.8-0.2c1-0.3,5.7-2.2,5.8-3.9c-1.1-0.2-5.5,0.3-7.2-0.1
				c-6.1-1.4-9.5-9-9.5-9s-3.4-1.2-11-4.4c-7.6-3.2-4.5-12.9-4.6-17.2c-0.2-4.3-7.5-18.3-21.2-28.9l-1.3,0.6
				C262.6,298.3,275.6,349.3,278.7,351.7z"/>
			<g>
				<path class="st13" d="M396.9,304.6h-41.4l-18.9,40.1h45.6l17.1-36.3C400.1,306.7,398.8,304.6,396.9,304.6z"/>
				<g>
					<path class="st14" d="M339.1,345.3h-24.9c-1.5,0-2.8-1.3-2.8-2.8c0-1.5,1.3-2.8,2.8-2.8h23.1l15.6-33.7c0.7-1.4,2.3-2,3.7-1.4
						c1.4,0.7,2,2.3,1.4,3.7l-16.4,35.3C341.2,344.7,340.2,345.3,339.1,345.3z"/>
				</g>
			</g>
			<path class="st6" d="M295.9,336.8c10.8,2,13.5,4.5,19.4,5.5c6.7,1.1,5.9,2.6,0.9,2.6c-5,0-17.4,0.2-21.7-0.8
				C290.2,343,295.9,336.8,295.9,336.8z"/>
			<path class="st12" d="M262.7,288.2c-8.3,26.5-20,56.6-18.2,56.6c1.9,0,49.4,1.9,51.3,0.3c1.9-1.6,1.3-7.7,1.1-8.6
				c-0.3-0.8-27-5.6-27-5.6s3.5-6.9,4.9-20.3C276.1,297.2,264.3,283.2,262.7,288.2z"/>
		</g>
		<path class="st6" d="M291.6,252.4l-6.7,24.4c0,0,11.3,17.6,14.4,16c3.1-1.6-1.7-14.3-1.7-16c0-1.7,4.8-19.6,4.8-19.6L291.6,252.4z
			"/>
		<path class="st10" d="M297.8,278c-0.1-0.6-0.2-1-0.2-1.2c0-1.7,4.8-19.6,4.8-19.6l-10.8-4.8l-2.2,8.1
			C291.3,268.8,294.8,274.4,297.8,278z"/>
		<path class="st6" d="M316.6,252c1.3,7.1,0.4,16.5-5.8,18.9c-6.3,2.4-13.8-2.2-16.9-10.2c-3.1-8-0.4-16.5,5.8-18.9
			C306,239.4,315.1,243.6,316.6,252z"/>
		<path class="st6" d="M295.3,256c0.9,2.5,0.1,5-1.7,5.7c-1.8,0.6-4-0.8-4.9-3.3c-0.9-2.5-0.1-5,1.7-5.7
			C292.3,252,294.4,253.5,295.3,256z"/>
		<path class="st3" d="M316.7,243.1c-2.1,16.6-22.3,14.5-22.3,14.5s-4.2-5.5-6-2.6c-1.9,2.9,2.6-16.8,14.2-17.4
			C306.3,237.3,316.7,243.1,316.7,243.1z"/>
		<ellipse class="st3" cx="285.2" cy="236.1" rx="10.9" ry="10.2"/>
	</g>
	<g>
		<g>
			<polygon class="st1" points="263.5,465.3 266,465.3 282.1,390.6 276.6,390.6 			"/>
			<polygon class="st1" points="341.1,465.3 338.6,465.3 319.9,388 325.4,388 			"/>
			<g>
				<path class="st1" d="M292,393.4c-10,0-16.3-1.8-20.4-5.7c-5-4.9-6.1-12.4-6.1-22.3c0-7.8-0.2-12.8-0.6-16.9
					c-0.2-1.5,1-2.9,2.5-3.1c1.5-0.2,2.9,1,3.1,2.5c0.4,4.3,0.6,9.5,0.6,17.5c0,10,1.3,15.3,4.4,18.3c3.2,3.1,8.9,4.4,18.6,4.1
					c9.4-0.2,15.8-1.5,21-2.6c6.8-1.4,11.7-2.4,17.5,0.4c1.4,0.7,2,2.3,1.3,3.7c-0.7,1.4-2.3,2-3.7,1.3c-4.1-2-7.6-1.3-14,0
					c-5.4,1.1-12.1,2.5-21.9,2.7C293.5,393.4,292.7,393.4,292,393.4z"/>
			</g>
		</g>
		<path class="st1" d="M269.3,345.1l15.3,0.6l-4.1,42.3c0,0-11.4-7.3-11.2-15.1C269.4,365,269.3,345.1,269.3,345.1z"/>
		<path class="st6" d="M344.8,349c12.9-2,17.3-1.3,25.3,13.4c7.9,14.7,18.5,41.3,24.5,44.7c9.1,5.2,12.2,17.8,15.9,17.3
			c3.8-0.6,6.2,1.1,2.1,4.5c-4.1,3.4-10.7,6.3-12.9,5.7c-2.3-0.6-4-10.3-9.9-13.5c-5.9-3.2-4.1-5.8-3.7-8.6
			c0.4-2.8-17.2-15.7-30.4-31.7c-8.1-9.8-12.3-16.2-12.9-22.1C342.2,352.9,344.8,349,344.8,349z"/>
		<path class="st10" d="M376.9,402.5c-3-7.6-6-20.2-8.9-31.8c-4-16.4-8.3-20.3-10.9-22.1c-3.2-0.8-7.1-0.4-12.3,0.4
			c0,0-2.7,3.9-2,9.7c0.6,5.9,4.8,12.3,12.9,22.1C362.7,389.3,370.8,396.8,376.9,402.5L376.9,402.5z"/>
		<path class="st15" d="M348.8,362c0,0-3.4,26-6.7,28.6c-2.3,1.9-3.9,2-5.5-5.7c-1.6-7.8,2.5-36.7,2.5-36.7L348.8,362z"/>
		<polygon class="st6" points="346,376.1 314.2,381.4 332.2,355.6 345.9,352.8 354.1,354.7 		"/>
		<path class="st8" d="M386.1,412.5c-1,4.2-0.9,7.2,0.9,8.8c1.8,1.5,8.6,13,8.6,13l2.1-0.3l-4.9-10.5L386.1,412.5z"/>
		<path class="st8" d="M399.7,434.6c2.3,0.6,8.8-2.3,12.9-5.7c4.1-3.4,1.7-5-2.1-4.5c-0.2,0-0.4,0-0.6,0c-1.9,4.2-8,7.3-10,2.9
			c-2-4.4-10.4-13.1-13.8-15c0,0.1,0,0.1,0,0.2c-0.4,2.8-2.2,5.4,3.7,8.6C395.7,424.2,397.5,434,399.7,434.6z"/>
		<path class="st10" d="M279.8,350.1c-11.3,20.3-3.6,33.2,10.2,34.5c13.7,1.3,35.5-1.2,48.1-11.7c12.7-10.5,23-21.6,21.6-23.3
			C358.2,347.9,279.8,350.1,279.8,350.1z"/>
		<path class="st6" d="M343.9,365.2c2.3-6.9,5-12.3,10.2-12.4c5.4-0.1,8.8,2.7,9,11.6c0.3,10.6,0.6,45.7,0.2,61.3
			c-0.4,11.8,3.1,15.6,2.8,27.9c-0.2,9.3,9.7,4.6,5.8,9.4c-2.6,3.3-10.4,2.2-15.2,1.6c-4.3-0.5,2.2-13.4-3.7-16.8
			c-5.1-2.9-5.2-7.7-2-11.3c3.2-3.6,0.4-14.3-1.8-21.8c-2.1-7.5-5.5-15.6-7.6-33.3C340.9,376.4,342.5,369.4,343.9,365.2z"/>
		<path class="st8" d="M368.5,459.2c-1.6,0.5-3.7,1-5.4,1.1c-3.6,0.1-4.6-3.8-4.9-9.1c-0.2-4.7-3.6-12-7-14.9
			c-0.1,0.1-0.1,0.2-0.2,0.2c-3.2,3.6-3.1,8.4,2,11.3c5.9,3.4-0.6,16.2,3.7,16.8c4.8,0.6,12.6,1.7,15.2-1.6
			C374.3,459.9,371.3,459.6,368.5,459.2z"/>
		<path class="st8" d="M351.8,435.2c0,0-5.2,5.4-4.7,7.7c0.5,2.3,2.1,8,2.3,12.4c0.3,4.4,0.5,9.4,0.5,9.4s1.9,0,2-0.5
			c0.1-0.5,1.2-17.9,1.2-17.9L351.8,435.2z"/>
		<path class="st4" d="M274.3,348.2c0,0-6.7,28.5,1.8,36.4c8.5,7.9,43.7,0.8,52,0.3c5.6-0.3,11,6.5,11,6.5s-3.9-15.9-1.2-28.7
			c2.7-12.8,7-13.7,7-13.7l-5.7-0.8H274.3z"/>
		<path class="st5" d="M272.8,340.8c2.9,6.1-3.1,16.6-1,19.6c2.1,3,14,0.4,21.9-5.9c7.8-6.3,22.7-7.7,22.7-7.7L272.8,340.8z"/>
		<path class="st1" d="M284.9,392.6c23.7,0.9,48.6,0.5,48.6-3.1c0-3.5-1.1-6-19.4-4.6c-18.4,1.4-30.8,3.4-36.4,2.1
			S284.9,392.6,284.9,392.6z"/>
	</g>
	<path class="st1" d="M537,351.2H204.4c-1.8,0-3.2-1.4-3.2-3.2v0c0-1.8,1.4-3.2,3.2-3.2H537c1.8,0,3.2,1.4,3.2,3.2l0,0
		C540.3,349.8,538.8,351.2,537,351.2z"/>
	<g>
		<path class="st6" d="M582,258.3c2.3,8.1-3.3,16.4-9.5,18.2c-6.2,1.8-10.6-3.7-12.9-11.8c-2.3-8.1,0.9-16.1,7-17.8
			C572.9,245.1,579.7,250.2,582,258.3z"/>
		<path class="st6" d="M547.4,415.1c0,0,15.8,24.6,18,25.7s7.5,1.3,5.5,5.3c-2,4-2.8,19.8-4.7,20.6c-1.9,0.8-17.9,2.7-15.5,0
			c2.4-2.7,3.9-1.3,5.1-6.1c1.2-4.8,2.9-13.9,0.6-15.8c-2.3-1.9-16.2-18.7-16.2-18.7L547.4,415.1z"/>
		<path class="st6" d="M467.7,425.7c0,0-19.2,31.7-22.8,34.6c-3.6,2.9-15.3,7.1-5.7,7.8s14.3-3.2,20.3-5c6.1-1.8,13.5-2.9,10.7-7.5
			c-2.9-4.6-1.7-14.7,4.5-21.2C480.8,428.1,467.7,425.7,467.7,425.7z"/>
		<path class="st5" d="M565.9,352.1c0,0-47.6-1.2-66.5,14.3c-11,16.8-37.8,66.2-39.9,71.6c1.4,1.4,9.4,4,13,3.6
			c10.5-12.5,24.4-23.4,29.9-33.2c6.8-12.1,8.9-18.2,20-19.2c11-1.1,36-4.6,43.5-4.6S565.9,352.1,565.9,352.1z"/>
		<polygon class="st1" points="607.5,468.2 605,468.2 587.1,393.5 592.6,393.5 		"/>
		<polygon class="st1" points="532.7,468.2 535.2,468.2 555.7,390.8 550.2,390.8 		"/>
		<path class="st4" d="M593.1,348.9l-27.7,4.8c0,0-36.8,0.3-53.6,3.5c-15.3,2.9-17.6,20.2,0,44.2c10,13.6,18.4,24.5,35.7,36.7
			c4.4-3.2,6.1-4.4,7.3-12.2c-1.2-1.7-4.5-12.4-5.5-14.5c-9.5-19.9-22.3-27.2-22.5-29.2c2.1-3.5,56.6,18.1,67.5,5.4
			C604.6,375.4,593.1,348.9,593.1,348.9z"/>
		<path class="st9" d="M594.2,286.2c-7.3-1-14.7,0.4-21.7,5.4c-6.1,6.2-12.9,16.4-12.5,33.2c0.5,21.4-3.3,22.8,0.7,28.6
			c16.7,6.9,45.3,36.6,38.6,4.8c-4.9-23,10.7-40.2-1.9-65.7C596.4,290.4,595.1,288.4,594.2,286.2z"/>
		<path class="st8" d="M560,332.9c-0.3,11.1-1.9,14.4-0.7,17.9c6.8,0.7,19.3,3.4,22.4,7.8c3.6,5,7.1,5.7,5.5,2
			c-1.7-3.7-6.1-8.9,0.7-26.8c6.8-17.9,10-30.1,3.3-42.5L560,332.9z"/>
		<path class="st6" d="M594.2,286.2c-4.5-10.6-5.6-22.6-5.6-22.6l-11.8,3.5c0,0,6.7,15,0.3,20.3c-1.4,1.1-2.9,2.5-4.6,4.2
			C579.5,286.5,586.9,285.2,594.2,286.2z"/>
		<path class="st10" d="M589,266.4c-0.7-0.6-1.6-1.4-2.5-2.2l-9.6,2.8c0,0,0,0,0,0.1c0.2,0.5,2.7,6.2,3,11.7c2.9-1.7,6-4.6,9.6-9.5
			C589.3,268.2,589.1,267.3,589,266.4z"/>
		<path class="st6" d="M586,289.5c-12.1,4.2-10.8,17-21.9,35.8c-5.8,9.7-11.1,9.6-11.1,9.6S539.4,335,523,333
			c-10.2-1.3-10.9,1.8-3.8,4.3c14.4,5.1,29.3,10.7,41.3,9.3c12-1.3,32.6-32,33.7-40C595.7,295.7,592.1,287.4,586,289.5z"/>
		<g>
			<path class="st1" d="M579.7,396.3c-0.8,0-1.5,0-2.3,0c-9.8-0.2-16.5-1.6-21.9-2.7c-6.4-1.3-9.9-2-14,0c-1.4,0.7-3.1,0.1-3.7-1.3
				c-0.7-1.4-0.1-3.1,1.3-3.7c5.8-2.8,10.7-1.8,17.5-0.4c5.2,1.1,11.6,2.4,21,2.6c10.5,0.3,17-1.3,20.3-5c2.9-3.3,3.8-8.7,2.7-17.1
				c-0.4-2.8-0.7-5.2-1.1-7.3c-0.9-5.9-1.5-9.7-0.8-15.7c0.7-5.6,2.5-13,6.8-27.4c0.4-1.5,2-2.3,3.5-1.9c1.5,0.4,2.3,2,1.9,3.5
				c-8,26.9-7.6,29.6-5.9,40.6c0.3,2.1,0.7,4.5,1.1,7.4c1.3,10.1,0,17-4.1,21.6C597.7,394.1,590.8,396.3,579.7,396.3z"/>
		</g>
		<path class="st8" d="M469,452.4c-12.8,6.2-19.6,9.8-23.7,9.5c-1-0.1-1.8-0.2-2.4-0.3c-4.6,2.7-11.8,5.9-3.6,6.5
			c9.6,0.7,14.3-3.2,20.3-5c6.1-1.8,13.5-2.9,10.7-7.5C469.7,454.8,469.3,453.7,469,452.4z"/>
		<path class="st8" d="M566.8,441.3c-0.3,10.1-1.7,20.1-7.9,22c-1.6,0.5-3.1,0.6-4.5,0.4c-1,1.2-2.2,1.2-3.8,3
			c-2.4,2.7,13.6,0.8,15.5,0c1.9-0.8,2.7-16.6,4.7-20.6C572.5,442.9,569.2,442.1,566.8,441.3z"/>
		<g>
			<path class="st13" d="M517.6,345.3H477c-1.1,0-2.1-0.6-2.5-1.6l-16.4-35.3c-0.7-1.4,0-3.1,1.4-3.7c1.4-0.7,3.1,0,3.7,1.4
				l15.6,33.7h38.8c1.5,0,2.8,1.3,2.8,2.8C520.4,344.1,519.1,345.3,517.6,345.3z"/>
		</g>
		<path class="st6" d="M526.1,333.4c-8.2-0.1-16.3-5-20.4-4.3c-4,0.7-17.2,9.9-15.6,10.2c1.7,0.4,12.1-5.1,12.5-5.1
			c0.4-0.1,2.6,3.8,8.2,5.2c5.6,1.4,0-4.2,17.3,1C539.4,343.8,526.1,333.4,526.1,333.4z"/>
		<path class="st8" d="M593,276.5l1.2,9.7c0,0-10.6,0.6-15.9,3.6c-5.3,3-13.1,11.6-13.1,11.6l6.4-11l0.9-7L593,276.5z"/>
		<path class="st7" d="M588.5,288.4c-7.9-1.5-11.5,5.6-16.6,17.1c-5.1,11.5-13.8,25.5-15.6,27.3c-1.7,1.8-29.2,0-29.2,0
			s-0.8,8,0,8.9c0.8,1,5.6,0.8,5.6,0.8s1.9,1.5,3.7,2.7c1.8,1.2,16.9,3.5,23.9,3.1c7-0.4,13.4-1,14.4-2c1-1.1,20.1-30.5,21.3-41.1
			C597.1,294.7,592.5,289.1,588.5,288.4z"/>
		<path class="st3" d="M565.3,239.9c-14.9,0.7-12.6,23.1-12.6,23.1s3.9,1.2,12-0.1c-0.6-2.4-0.4-8.6-0.4-8.6s0.9,5,2.1,8
			c1.7,0.8,3.7,0.1,6.9-0.7c1.7,7.1,6.5,10.1,9.8,11.2c3.6,1.1,7.4,2.5,11.7,0.4c4.3-2.1,1.9-24-0.3-28.4
			c-3.4-6.6-9.1-12.5-18.9-9.4C570.8,236.9,565.3,239.9,565.3,239.9z"/>
		<path class="st3" d="M591.2,266.5l6.1,8.9c0,0-6.8,16.9,12.9,24.5c15.4,6,13.6,16.5,6.6,27.1c-6.9,10.6,4.2,19.9,4.2,19.9
			s1.7-11.7,16.6-14c20.4-3,26.1-30.4,10.9-44.1c-12.6-11.3-16.4-1.9-24.9-12.1c-8.5-10.2-24.6-3.3-24.6-3.3l-5.9-8.6L591.2,266.5z"
			/>
		<g>
			<path class="st3" d="M655.5,316.4c-0.1,0-0.2,0-0.2-0.1c-0.2-0.1-0.3-0.4-0.2-0.7c5.1-9.4,0.9-20.8-1.2-23.8
				c-0.2-0.3-0.4-0.7-0.7-1c-2.1-3.2-4.6-7.3-18.4-9.7c-3.3-0.6-6-2.6-8.8-4.6c-5.9-4.3-12.5-9.2-26.9-2.5c-0.2,0.1-0.5,0-0.6-0.2
				c-0.1-0.2,0-0.5,0.2-0.6c15-6.9,21.8-1.8,27.9,2.6c2.7,2,5.3,3.9,8.4,4.5c14.2,2.5,16.9,6.8,19,10.2c0.2,0.3,0.4,0.7,0.6,1
				c1.3,1.9,2.8,5.7,3.5,10.1c0.6,3.8,0.6,9.5-2.3,14.7C655.8,316.3,655.7,316.4,655.5,316.4z"/>
		</g>
		<g>
			<path class="st3" d="M587.9,275.6c-1,0-2-0.1-3.2-0.3c-5.2-0.8-12.2-3.7-12.7-20.3c0-0.3,0.2-0.5,0.5-0.5c0.3,0,0.5,0.2,0.5,0.5
				c0.2,6.9,1.6,12,4.1,15.1c1.9,2.4,4.4,3.8,7.8,4.3c4.8,0.7,8.1-0.2,9.6-2.7c0.1-0.2,0.4-0.3,0.7-0.2c0.2,0.1,0.3,0.4,0.2,0.7
				C594,274.4,591.5,275.6,587.9,275.6z"/>
		</g>
	</g>
	<g>
		<path class="st7" d="M122.9,287.3c-17.3,9.9-41.4,51-36.3,57.7c5.1,6.7,32.3-10.9,32.3-10.9L122.9,287.3z"/>
		<path class="st3" d="M155.2,239.7c-6.6-0.2-4.2-5.1-11.7-3.1c-4,1-1,2.7-6.2,2.1c-5.2-0.5-7.7-1.1-8.4,2.3c-0.7,3.4-1,4.5-3.5,5
			c-2.5,0.5-3.6,5,0,8c3.6,3,1.9,4.3,1.1,6.8c-0.8,2.5,1.9,2.7,3.4,5c1.5,2.3-1.4,2.8,0.8,4.8c2.1,2,5.1,1.8,5.1,1.8l9-17.3
			L155.2,239.7z"/>
		<path class="st8" d="M289.8,446.8c0,0,9.6,0.3,17.1-2.7c7.5-2.9,12.6-7.5,11.2-2.1c-1.3,5.3-7.5,14.5-12.8,15.4
			c-5.3,0.9-7.2,6.8-10.2,6.8c-2.9,0-7.2-6.8-14.7-10.2C273.6,451,289.8,446.8,289.8,446.8z"/>
		<path class="st8" d="M213.9,445.9c0,0,4,5.6,11.1,9.5c7.3,4,15.7,5.9,10.5,7.8c-5.2,1.8-12.8,3.2-20.2,1.1
			c-5.2-1.5-11.3-1.8-12.9-4.3c-1.6-2.5,1.9-8.6,0.4-17.9C201.6,434.7,213.9,445.9,213.9,445.9z"/>
		<path class="st5" d="M168.9,356.2c0,0,55.7,20.9,60.2,26.7c4.5,5.8,63.1,59,63.1,62.9c0,3.9-10,11-10,11s-50.3-30.8-62.7-46.5
			c-12.5-15.7-42.9-23.2-59.1-24.7C144.2,384.2,168.9,356.2,168.9,356.2z"/>
		<path class="st4" d="M171,356.2c0,0,38.1-1.4,46.3,0c8.2,1.4,26.2,1.4,14.4,34.6c-9.2,26-12.3,59-12.3,59l-18.3,4.5
			c0,0,0.7-59.2,9.5-75c-6.4,1-18.1,3.1-34.3,7.7c-30.1,8.6-46.5,4.3-46.5,4.3l-4.5-15.7L171,356.2z"/>
		<polygon class="st16" points="139.2,257.8 129.8,285.3 141.6,293.1 148.3,269.3 		"/>
		<path class="st17" d="M142.7,289.3l5.6-20l-9.1-11.5l-3.4,10.1C136.9,276.9,139.8,284.5,142.7,289.3z"/>
		<path class="st16" d="M162.9,262.4c0.3,8.4-3.8,15.6-10.3,16.3c-6.5,0.6-12.5-5.6-13.3-13.9c-0.8-8.3,3.8-15.6,10.3-16.3
			C156.1,247.9,162.4,249.2,162.9,262.4z"/>
		<path class="st9" d="M125.4,284.5c-28.6,19.3-10.8,50.5-4.5,73.3c5.3,19.4,5.2,31.2,6,31.2c0.8,0,20.5-2.9,31.7-13.1
			c11.2-10.2,18.8-20,18.8-20s-14.4-2.6-19.1-21.2c-2.4-9.4-1.3-14.6-6.7-29.5C146.1,290.3,125.4,284.5,125.4,284.5z"/>
		<path class="st8" d="M125.4,284.5l3.1-7.5c0,0,9.7,6.4,13.6,9.4c3.9,3,6.3,3.7,6.3,3.7s1.4,10.7,0.5,9.8
			C137.3,287.7,125.4,284.5,125.4,284.5z"/>
		<g>
			<polygon class="st1" points="112.7,468.2 115.2,468.2 133.1,393.5 127.6,393.5 			"/>
			<polygon class="st1" points="187.5,468.2 185,468.2 164.5,390.8 169.9,390.8 			"/>
			<g>
				<path class="st1" d="M140.5,396.3c-10,0-16.3-1.8-20.4-5.7c-5-4.9-6.1-12.4-6.1-22.3c0-20.7-1.2-25-7-37.7
					c-0.6-1.4,0-3.1,1.4-3.7c1.4-0.6,3.1,0,3.7,1.4c6.2,13.4,7.5,18.3,7.5,40c0,10,1.3,15.3,4.4,18.3c3.2,3.1,8.9,4.4,18.6,4.1
					c9.4-0.2,15.8-1.5,21-2.6c6.8-1.4,11.7-2.4,17.5,0.4c1.4,0.7,2,2.3,1.3,3.7c-0.7,1.4-2.3,2-3.7,1.3c-4.1-2-7.6-1.3-14,0
					c-5.4,1.1-12.1,2.5-21.9,2.7C142,396.3,141.2,396.3,140.5,396.3z"/>
			</g>
		</g>
		<g>
			<path class="st13" d="M264.1,345h-40.6c-1.5,0-2.8-1.3-2.8-2.8c0-1.5,1.3-2.8,2.8-2.8h38.8l15.6-33.7c0.7-1.4,2.3-2,3.7-1.4
				c1.4,0.7,2,2.3,1.4,3.7l-16.4,35.3C266.2,344.4,265.2,345,264.1,345z"/>
		</g>
		<path class="st18" d="M126.4,312.6c0,0,7.1,21.7,15.9,30.7s26.6,12,32.1,11.7c-4.4-1.8-12.9-6.9-16.3-20.3
			c-2.4-9.4-1.3-14.6-6.7-29.5c-4-11.1-16.5-17.1-22.6-19.5c7.7,5.5,17.3,14.6,20.2,21.5C152.4,314.9,126.4,312.6,126.4,312.6z"/>
		<path class="st16" d="M224.8,331.7c0,0,12.3-5.6,13.6-5.1c1.3,0.5,15,8.8,15,10.1c0,1.4-12-5.1-12-5.1s1.3,3.6,0.5,5.3
			c-0.8,1.7-10,1.7-18.4,1.2C215.2,337.6,224.8,331.7,224.8,331.7z"/>
		<path class="st7" d="M126.8,295.8c-11.3,23.2,27.5,46.8,50.6,48.9c23.1,2.1,50.5-5.5,50.5-5.5l-3.1-7.5c0,0-46.2-6-47.4-6.9
			C176.3,324,131,287.3,126.8,295.8z"/>
		<path class="st16" d="M141.6,258.6c1.1,2.8,0.3,5.6-1.7,6.4c-2,0.8-4.5-0.9-5.5-3.6c-1.1-2.8-0.3-5.6,1.7-6.4
			C138,254.2,140.5,255.8,141.6,258.6z"/>
		<path class="st3" d="M162.9,240.9c3.1-1.3,6.7-2.7,5.6,2.6c-0.5,2.3,0,1.7,0.8,3.8c0.8,2.1-2.1,3.8-3,5c-1,1.2,1.4,2.5-0.5,3.9
			c-1.9,1.4-4.4-0.5-6.2,0c-5.3,1.6-4.6-2.6-7.6-3.4c-3-0.9-4.4-0.7-5,1.2c-0.6,1.9,2.1,8.2-0.2,7.6c-2.3-0.6-2.8,4.5-3.4,7.3
			c-0.6,2.9-2.2-2-2.1-5.2c0.2-5-1.1-7.1-2.9-8.5c-1.8-1.4-2.6-14.1,6.3-14.6c8.9-0.5,9-1.3,12.8-2.1
			C161.3,237.5,161.5,241.5,162.9,240.9z"/>
	</g>
	<g>
		<path class="st13" d="M662.5,386.2c5.7,5.2,3.2,10.4-1,20c-4.2,9.6-4.9,45.2-4.9,45.2l3.5-0.5c0,0-0.5-36.6,4.2-46.4
			c4.7-9.9,6.7-14.8,10.9-11.6C679.3,396.1,662.5,386.2,662.5,386.2z"/>
		<path class="st14" d="M659.3,379.5c0.7-3.1,4.8-6.4,10.3-9.2c-0.8,4.5-3.4,11.9-0.7,13.5c3.6,2.1,0.4-8.3,1.8-14
			c5.1-2.5,11.3-4.6,17-5.6c0,0,0,0,0,0.1c-3.2,8.2-7.4,11.4-5.7,12.6c1.3,0.9,5.5-8.5,11.1-13.3c4.2-0.2,7.8,0.3,9.9,2
			c3.2,2.6,5.4,4.9,2.2,12.7c-1.9,1.3-4.3,2.3-7.1,2.6c-7.4,0.7-10.9,1-5.7,3.5c2.5,1.2,6.8-0.1,10.2-0.8c-1.1,2.1-2.5,4.4-4.2,7.1
			c-1.1,1.7-2.2,3.2-3.5,4.4c-2.4,0.5-4.5,0.5-5.6,0c-3.5-1.5-12.3-6.2-14.6-4.2c-2.2,1.9,16.5,3.2,15.2,8.1
			c-9,5.2-19.4,2.7-21.2-2.1C666.3,390.3,657.3,388.7,659.3,379.5z"/>
		<path class="st13" d="M678,414.6c-9.9-7.4-20-0.5-25.2,7.4c-5.2,7.9-1.5,25.7-1.5,25.7s2,0,2-0.7c0-0.7-5.4-21,7.4-30.1
			c8-5.7,13.8-3,14.6-0.2s-3.2,7.7-3.2,7.7L678,414.6z"/>
		<path class="st14" d="M655.3,399.4c9.9,0,13.1,15.3,10.4,24.2c-2.7,8.9-6.4,25.4-6.4,25.4l-2.5-2.5c0,0,9.4-23.2,7.2-33.6
			c-2.2-10.4-7.7-12.1-8.6-12.1C654.3,400.9,655.3,399.4,655.3,399.4z"/>
		<path class="st13" d="M663.6,423.7c0.7-0.9,1.6-1.7,2.6-2.2c-0.1,0.7-0.3,1.4-0.5,2.1c-1.2,4.1-2.7,9.7-3.9,14.6
			c-0.1-0.6-0.3-1.6-0.5-3.1c-0.1-0.4-0.1-0.7-0.1-1.1C662.1,430.7,663,427.1,663.6,423.7z"/>
		<path class="st14" d="M666.3,423.7c18.8-7.9,8.9-18.8,25.4-11.6c1.2,0.5,2.6,1.8,4,3.5c-1.5,0.4-3.3,0.7-5.2,0.4
			c-4.9-0.7-3.2,3.2,4.9,4.2c1.5,0.2,2.8,0.4,3.8,0.8c3.9,7.5,5.6,17.3-2.6,20.7c-1.6,0.7-3.6,1.1-5.8,1.2c-2.5-2,0.6-13.7-3.3-12.1
			c-3.8,1.5,1.2,10,0.5,12.1c-3.7-0.1-7.8-0.7-11.7-1.6c-1.6-0.9-2.7-2-3.1-3.6c-1.2-5.2,6.9-8.4,7.2-12.8c0.2-4.1-3,9-11.5,10.9
			C661.2,432.3,657.5,427.4,666.3,423.7z"/>
		<path class="st14" d="M652.9,409.8c2-4.2-3.2-5.2-3-2c0.2,2.8,0.2,9.8-2.7,11.6c-5-0.5-11.9-2.6-17.1-5.7c-0.1-0.4,0-0.8,0.2-1.3
			c2.2-4.4,16.5-8.2,12.1-9.6c-3.5-1.2-9.7,5.8-14.7,9.3c-3-2.3-5-5-5-8c0-4.1,5-8.7,11.4-11c2.9,0.3,5.6,1.9,9.8,4.3
			c6.2,3.5,4.8-2.2-1.1-5.6c5.1,0.3,10.1,2.4,13.9,7.6c0,0-0.4,2.2,2,5.6c6.4,9.3-1,14.8-9.8,14.4
			C649.5,417.1,651.5,412.7,652.9,409.8z"/>
		<path class="st13" d="M677.4,414.2c4.8,3.7,10.2,8.1,16.8,11.1c6.6,3,5.3,12.6,5.3,12.6s1-8.3-4.5-11.2c-5.5-2.9-9.1-6.3-13.3-6.9
			c-4.2-0.7-6.5-1.3-6.5-1.3s1.3-2.6,0.5-3.6C675,413.8,677.4,414.2,677.4,414.2z"/>
		<path class="st13" d="M701.2,370.4c-17.7,4.7-30.6,16-33,18.8c-2.4,2.7-2.4,3.5-2.4,3.5l1.9,3.5l0.9-0.4c0,0-1.4-3,2.3-6.8
			c6.4-6.6,14.3-11.9,19.7-14.2C695.9,372.4,701.2,370.4,701.2,370.4z"/>
		<path class="st8" d="M655.8,468.2L655.8,468.2c6.7,0,12.1-5.4,12.1-12.1V444h-24.1v12.1C643.8,462.8,649.2,468.2,655.8,468.2z"/>
		<rect x="643.8" y="446.8" class="st2" width="24.1" height="1.7"/>
		<rect x="643.8" y="449.9" class="st2" width="24.1" height="1"/>
	</g>
	<g>
		<g>
			<path class="st8" d="M366.1,120c0-18.3-14.7-33.2-33-33.4c-18.3-0.2-33.5,14.5-33.8,32.8c-0.1,8.9,3.2,17.1,8.8,23.2
				c2.6,2.8,4,6.5,4,10.3v15c0,9.7,7.9,17.6,17.6,17.6h5.9c9.7,0,17.6-7.9,17.6-17.6v-15c0-3.8,1.5-7.5,4.1-10.3
				C362.7,136.6,366.1,128.7,366.1,120z"/>
			<path class="st19" d="M361.4,122.2c0-15.7-12.7-28.5-28.4-28.7c-15.8-0.2-28.8,12.5-29.1,28.3c-0.1,7.7,2.8,14.7,7.6,19.9
				c2.2,2.4,3.5,5.6,3.5,8.8v12.9c0,8.3,6.8,15.1,15.1,15.1h5c8.3,0,15.1-6.8,15.1-15.1v-12.9c0-3.3,1.3-6.5,3.5-8.9
				C358.5,136.5,361.4,129.7,361.4,122.2z"/>
			<g>
				<path class="st0" d="M337.6,158.9h-11c-0.5,0-0.9-0.4-1-0.9c0-0.2-2.1-21.4-11.6-27.4c-0.5-0.3-0.6-0.9-0.3-1.4
					c0.3-0.5,0.9-0.6,1.4-0.3c9.3,5.8,11.9,23.7,12.4,28h9c0-1.5,0-4.3,0.9-8c1.1-4.9,3.9-12.4,10.8-19.8c0.4-0.4,1-0.4,1.4-0.1
					c0.4,0.4,0.4,1,0.1,1.4c-12.5,13.6-11.1,27.2-11.1,27.4c0,0.3-0.1,0.6-0.2,0.8C338.2,158.8,337.9,158.9,337.6,158.9z"/>
			</g>
			<g>
				<path class="st0" d="M345.8,132c-3.7,0-8.8-2.6-14.1-5.5c-6.9,3.7-13.3,7-16.9,4.8c-1.7-1-2.5-3-2.5-6.1c0-2.9,0.9-4.9,2.5-5.9
					c3.6-2.1,10,1.3,16.9,4.9c7-3.7,13.6-7.2,17.2-5c1.6,1,2.4,3,2.4,5.9c0,3.1-0.9,5.1-2.6,6.1C347.8,131.8,346.9,132,345.8,132z
					 M333.8,125.3c5.5,2.9,11.2,5.7,13.8,4.2c1.1-0.6,1.6-2.1,1.6-4.5c0-2.2-0.4-3.6-1.4-4.2C345.4,119.4,339.4,122.4,333.8,125.3z
					 M317.5,120.6c-0.7,0-1.2,0.1-1.7,0.4c-1,0.6-1.5,2-1.5,4.2c0,2.3,0.5,3.8,1.5,4.4c2.5,1.5,8.2-1.3,13.8-4.2
					C325.1,122.9,320.4,120.6,317.5,120.6z"/>
			</g>
			<path class="st12" d="M335.9,190.2h-5.8c-2.4,0-4.4-2-4.4-4.4l0,0c0-2.4,2-4.4,4.4-4.4h5.8c2.4,0,4.4,2,4.4,4.4l0,0
				C340.3,188.2,338.3,190.2,335.9,190.2z"/>
			<path class="st12" d="M311.1,157.1v10.6c0,10.1,8.3,18.4,18.4,18.4h6.1c10.1,0,18.4-8.3,18.4-18.4v-10.6H311.1z"/>
			<path class="st1" d="M353.9,160.4H312c-1.4,0-2.5-1.1-2.5-2.5v0c0-1.4,1.1-2.5,2.5-2.5h41.9c1.4,0,2.5,1.1,2.5,2.5v0
				C356.4,159.3,355.3,160.4,353.9,160.4z"/>
			<path class="st1" d="M354.1,164.2l-41.8,5.2c-1.3,0.2-2.5-0.8-2.7-2.1l0-0.3c-0.2-1.3,0.8-2.5,2.1-2.7l41.8-5.2
				c1.3-0.2,2.5,0.8,2.7,2.1l0,0.3C356.4,162.9,355.5,164.1,354.1,164.2z"/>
			<path class="st1" d="M354.1,171.5l-41.8,5.2c-1.3,0.2-2.5-0.8-2.7-2.1l0-0.3c-0.2-1.3,0.8-2.5,2.1-2.7l41.8-5.2
				c1.3-0.2,2.5,0.8,2.7,2.1l0,0.3C356.4,170.2,355.5,171.4,354.1,171.5z"/>
			<path class="st1" d="M351.6,179.4l-34.8,4.3c-1.2,0.1-2.3-0.7-2.5-1.9l-0.1-0.7c-0.1-1.2,0.7-2.3,1.9-2.5l34.8-4.3
				c1.2-0.1,2.3,0.7,2.5,1.9l0.1,0.7C353.6,178.1,352.8,179.2,351.6,179.4z"/>
		</g>
		<g>
			<path class="st1" d="M653,188.9h22.4c0,12.3-10.1,22.4-22.4,22.4s-22.4-10.1-22.4-22.4c0-12.3,10.1-22.4,22.4-22.4V188.9z"/>
			<g>
				<path class="st8" d="M679.2,185.7c0-12.4-10-22.4-22.4-22.4v22.4H679.2z"/>
				<path class="st8" d="M634.3,185.7c0,12.4,10,22.4,22.4,22.4C644.4,208.2,634.3,198,634.3,185.7z"/>
				<path class="st8" d="M656.7,163.3c-12.4,0-22.4,10-22.4,22.4C634.3,173.4,644.4,163.3,656.7,163.3z"/>
				<path class="st8" d="M656.7,208.2c12.4,0,22.4-10,22.4-22.4C679.2,198,669.1,208.2,656.7,208.2z"/>
			</g>
		</g>
		<g>
			<rect x="213.8" y="174" class="st0" width="4.9" height="14.2"/>
			<rect x="276.6" y="178.6" class="st0" width="4.9" height="9.6"/>
			<rect x="234.6" y="155" class="st0" width="4.9" height="33.2"/>
			<rect x="245" y="173.3" class="st0" width="4.9" height="14.9"/>
			<rect x="255.4" y="169.1" class="st0" width="4.9" height="19.1"/>
			<rect x="224.2" y="164.7" class="st0" width="4.9" height="23.5"/>
			<rect x="265.8" y="159.2" class="st0" width="4.9" height="29"/>
		</g>
		<g>
			<defs>
				<path id="SVGID_3_" d="M57.5,102.9c-15.7,0-28.4,12.7-28.4,28.4s12.7,28.4,28.4,28.4s28.4-12.7,28.4-28.4S73.2,102.9,57.5,102.9
					z M57.5,146.4c-8.3,0-15.1-6.7-15.1-15.1c0-8.3,6.7-15.1,15.1-15.1c8.3,0,15.1,6.7,15.1,15.1C72.6,139.7,65.8,146.4,57.5,146.4z
					"/>
			</defs>
			<clipPath id="SVGID_1_">
				<use xlink:href="#SVGID_3_"  style="overflow:visible;"/>
			</clipPath>
			<path class="st20" d="M83.2,147.1l-25.7-15.7l-4.6,29.8C64.9,163,76.9,157.4,83.2,147.1z"/>
			<path class="st20" d="M83.2,147c0.1-0.1,0.2-0.3,0.2-0.3c5.4-9.1,5.6-20.4,0.7-29.7c-9.1,4.8-3.7,1.9-26.6,14.2
				C83.2,147.1,79.2,144.7,83.2,147z"/>
			<path class="st21" d="M29.2,121l28.3,10.4L84,117C71.6,94.1,38.2,96.9,29.2,121z"/>
			<path class="st22" d="M52.8,161.1l4.6-29.8L29.2,121C22.5,139,34.4,158.2,52.8,161.1z"/>
			<path class="st23" d="M27.4,125.9c0.5,0,1,0.1,1.4,0.4c0.2-1.3,0.6-2.7,1-4l15.3,5.7c0,0,0,0,0,0c0-0.7,0.2-1.4,0.7-1.9l-1.5-0.6
				l-13.8-5.1c1.1-2.8,2.6-5.3,4.4-7.5c-0.6-0.2-1.2-0.7-1.5-1.3c-1.9,2.4-3.6,5.1-4.8,8.1l0,0l-0.3,0.9l-0.4,0.9l0,0
				c-0.5,1.4-0.9,2.9-1.1,4.4C27,125.9,27.2,125.9,27.4,125.9z"/>
			<path class="st24" d="M85.3,117.4L85.3,117.4l-0.5-0.9c0,0,0,0,0-0.1l-0.4-0.7l0,0c-3-5.2-7.3-9.4-12.4-12
				c-5-2.6-10.8-3.8-16.6-3.4c-6.8,0.5-13,3-18,7.2c0.6,0.4,1,0.9,1.3,1.5c4.6-3.9,10.4-6.3,16.8-6.7c11.2-0.8,21.4,4.7,27,14.3
				l-7.8,4.2c-1.6,0.9-3.9,2.1-7.7,4.1c-2.4,1.3-5.5,3-9.4,5.1l-0.2,0.1l-0.8-0.5l0,0.3l-5.5-2c0,0.7-0.3,1.4-0.7,1.9l5.9,2.2
				L52,160c-8.2-1.6-15.4-6.7-19.7-14c-2.6-4.4-3.9-9.3-4-14.2c-0.3,0.1-0.6,0.2-1,0.2c-0.4,0-0.7-0.1-1-0.2
				c0.1,5.3,1.5,10.5,4.2,15.3c4.6,7.9,12.3,13.3,21.1,15l0,0l1,0.2c0,0,1,0.2,1,0.2l0,0c1.3,0.2,2.6,0.2,3.8,0.2
				c4.5,0,8.9-1,13.1-2.9c5.3-2.5,9.8-6.3,12.9-11.2l0,0l0.2-0.3c0,0,0.3-0.5,0.3-0.5c0-0.1,0.1-0.2,0.1-0.2l0,0c0,0,0,0,0,0
				l0.3-0.5l0,0C89.7,137.8,90,126.7,85.3,117.4z M54,160.3l4.3-27.3l11.1,6.8c4.5,2.7,7,4.3,8.6,5.3l3.8,2.3
				C75.7,156.7,65,161.6,54,160.3z M82.9,145.7c0,0-0.2-0.1-0.2-0.1c-1.1-0.6-1.5-0.9-3.6-2.2l-19.6-12l16.3-8.8
				c2.4-1.3,3.4-1.8,5.8-3.1c0.6-0.3,1.3-0.7,2.1-1.1C87.9,127.1,87.6,137.3,82.9,145.7z"/>
		</g>
		<g>
			<path class="st8" d="M215.8,136.9H146c-4.5,0-8.2-3.7-8.2-8.2v-22.6c0-4.5,3.7-8.2,8.2-8.2h69.8c4.5,0,8.2,3.7,8.2,8.2v22.6
				C223.9,133.2,220.3,136.9,215.8,136.9z"/>
			<path class="st2" d="M215,135h-68.2c-3.6,0-6.6-3-6.6-6.6v-13.7c0-3.6,3-6.6,6.6-6.6H215c3.6,0,6.6,3,6.6,6.6v13.7
				C221.6,132.1,218.6,135,215,135z"/>
			<g>
				<path class="st2" d="M143.2,103.8h-0.3c-0.8,0-1.5-0.7-1.5-1.5l0,0c0-0.8,0.7-1.5,1.5-1.5h0.3c0.8,0,1.5,0.7,1.5,1.5l0,0
					C144.7,103.2,144,103.8,143.2,103.8z"/>
				<path class="st2" d="M149.3,103.8H149c-0.8,0-1.5-0.7-1.5-1.5l0,0c0-0.8,0.7-1.5,1.5-1.5h0.3c0.8,0,1.5,0.7,1.5,1.5v0
					C150.9,103.2,150.2,103.8,149.3,103.8z"/>
				<path class="st2" d="M155.5,103.8h-0.3c-0.8,0-1.5-0.7-1.5-1.5v0c0-0.8,0.7-1.5,1.5-1.5h0.3c0.8,0,1.5,0.7,1.5,1.5l0,0
					C157,103.2,156.3,103.8,155.5,103.8z"/>
			</g>
			<path class="st8" d="M218.3,114.1h-43.1c-0.7,0-1.3-0.6-1.3-1.3c0-0.7,0.6-1.3,1.3-1.3h43.1c0.7,0,1.3,0.6,1.3,1.3
				C219.6,113.5,219,114.1,218.3,114.1z"/>
			<path class="st8" d="M185.9,133.9h-43.1c-0.7,0-1.3-0.6-1.3-1.3c0-0.7,0.6-1.3,1.3-1.3h43.1c0.7,0,1.3,0.6,1.3,1.3
				C187.2,133.4,186.6,133.9,185.9,133.9z"/>
			<path class="st8" d="M193,133.9h-2.8c-0.7,0-1.3-0.6-1.3-1.3l0,0c0-0.7,0.6-1.3,1.3-1.3h2.8c0.7,0,1.3,0.6,1.3,1.3v0
				C194.3,133.4,193.7,133.9,193,133.9z"/>
			<path class="st8" d="M199.7,133.9h-2.8c-0.7,0-1.3-0.6-1.3-1.3v0c0-0.7,0.6-1.3,1.3-1.3h2.8c0.7,0,1.3,0.6,1.3,1.3v0
				C201,133.4,200.4,133.9,199.7,133.9z"/>
			<path class="st8" d="M218.7,119.7h-71.3c-0.5,0-0.9-0.4-0.9-0.9c0-0.5,0.4-0.9,0.9-0.9h71.3c0.5,0,0.9,0.4,0.9,0.9
				C219.6,119.3,219.2,119.7,218.7,119.7z"/>
			<path class="st8" d="M218.7,123.4h-71.3c-0.5,0-0.9-0.4-0.9-0.9c0-0.5,0.4-0.9,0.9-0.9h71.3c0.5,0,0.9,0.4,0.9,0.9
				C219.6,123.1,219.2,123.4,218.7,123.4z"/>
		</g>
		<g>
			<path class="st0" d="M433.9,112.1h-36.8V90.6h27.7c3.6,3.6,5.6,5.6,9.1,9.1V112.1z"/>
			<polygon class="st7" points="424.1,90.6 424.1,102.1 433.9,102.1 433.9,99.9 424.7,90.7 			"/>
			<polygon class="st8" points="424.8,90.6 424.8,99.9 433.9,99.9 			"/>
			<path class="st8" d="M417.7,98.7h-16.4c-0.4,0-0.6-0.3-0.6-0.6c0-0.4,0.3-0.6,0.6-0.6h16.4c0.4,0,0.6,0.3,0.6,0.6
				C418.3,98.4,418,98.7,417.7,98.7z"/>
			<path class="st8" d="M417.7,102h-16.4c-0.4,0-0.6-0.3-0.6-0.6c0-0.4,0.3-0.6,0.6-0.6h16.4c0.4,0,0.6,0.3,0.6,0.6
				C418.3,101.7,418,102,417.7,102z"/>
			<path class="st8" d="M417.7,105.5h-16.4c-0.4,0-0.6-0.3-0.6-0.6c0-0.4,0.3-0.6,0.6-0.6h16.4c0.4,0,0.6,0.3,0.6,0.6
				C418.3,105.2,418,105.5,417.7,105.5z"/>
		</g>
		<circle class="st8" cx="414.4" cy="92.3" r="1.1"/>
		
			<rect x="249.9" y="89.2" transform="matrix(0.9818 0.1897 -0.1897 0.9818 24.3473 -47.7428)" class="st25" width="23.4" height="28.2"/>
		<path class="st26" d="M270.9,103.7l-12.2-2.4c-0.3-0.1-0.5-0.4-0.5-0.7c0.1-0.3,0.4-0.5,0.7-0.5l12.2,2.4c0.3,0.1,0.5,0.4,0.5,0.7
			C271.5,103.5,271.2,103.7,270.9,103.7z"/>
		<path class="st26" d="M270.3,106.7l-12.2-2.4c-0.3-0.1-0.5-0.4-0.5-0.7c0.1-0.3,0.4-0.5,0.7-0.5l12.2,2.4c0.3,0.1,0.5,0.4,0.5,0.7
			C270.9,106.5,270.6,106.8,270.3,106.7z"/>
		<path class="st26" d="M269.7,109.8l-12.2-2.4c-0.3-0.1-0.5-0.4-0.5-0.7c0.1-0.3,0.4-0.5,0.7-0.5l12.2,2.4c0.3,0.1,0.5,0.4,0.5,0.7
			C270.3,109.7,270,109.9,269.7,109.8z"/>
		<path class="st27" d="M262.6,91c-0.1,0.5-0.6,0.9-1.2,0.8c-0.5-0.1-0.9-0.6-0.8-1.2c0.1-0.5,0.6-0.9,1.2-0.8
			C262.4,89.9,262.7,90.4,262.6,91z"/>
		<path class="st8" d="M450.9,142.1l-35.5-3.7l2.3-22.3l28.2,3c2.6,3.2,4,5,6.6,8.1L450.9,142.1z"/>
		<polygon class="st2" points="445.4,120.6 418.9,117.8 416.9,136.6 449.8,140.1 451,129.1 444.5,128.4 		"/>
		<path class="st1" d="M441.8,127.5l-17.1-1.8c-0.4,0-0.7-0.4-0.6-0.8s0.4-0.7,0.8-0.6l17.1,1.8c0.4,0,0.7,0.4,0.6,0.8
			C442.5,127.2,442.2,127.5,441.8,127.5z"/>
		<path class="st1" d="M441.4,131.2l-17.1-1.8c-0.4,0-0.7-0.4-0.6-0.8c0-0.4,0.4-0.7,0.8-0.6l17.1,1.8c0.4,0,0.7,0.4,0.6,0.8
			C442.1,131,441.8,131.3,441.4,131.2z"/>
		<path class="st1" d="M441,135.2l-17.1-1.8c-0.4,0-0.7-0.4-0.6-0.8c0-0.4,0.4-0.7,0.8-0.6l17.1,1.8c0.4,0,0.7,0.4,0.6,0.8
			C441.7,134.9,441.4,135.2,441,135.2z"/>
		<circle class="st27" cx="431" cy="121.2" r="1.1"/>
		<g>
			<path class="st14" d="M627.4,103.8c0,6.8-5.5,12.3-12.3,12.3c-6.8,0-12.3-5.5-12.3-12.3c0-6.8,5.5-12.3,12.3-12.3
				C621.9,91.6,627.4,97.1,627.4,103.8z"/>
			<g>
				<path class="st2" d="M613.9,108C613.9,108,613.9,108,613.9,108c-0.2,0-0.3-0.1-0.5-0.2l-3.3-3.8c-0.2-0.2-0.2-0.6,0.1-0.8
					c0.2-0.2,0.6-0.2,0.8,0.1l2.9,3.3l6.7-6.5c0.2-0.2,0.6-0.2,0.8,0c0.2,0.2,0.2,0.6,0,0.8l-7.1,7C614.2,108,614.1,108,613.9,108z"
					/>
			</g>
		</g>
		<g>
			<path class="st1" d="M75.1,217.7h45.5c8.8,0,15.9-7.2,15.9-15.9v0c0-8.8-7.2-15.9-15.9-15.9H75.1c-8.8,0-15.9,7.2-15.9,15.9v0
				C59.2,210.5,66.4,217.7,75.1,217.7z"/>
			<path class="st1" d="M127.2,212.9v17.6l-20.3-20.3C106.9,210.2,126.7,212.9,127.2,212.9z"/>
			<path class="st2" d="M76,214.5h43.8c7,0,12.8-5.7,12.8-12.8v0c0-7-5.7-12.8-12.8-12.8H76c-7,0-12.8,5.7-12.8,12.8v0
				C63.2,208.8,68.9,214.5,76,214.5z"/>
			<path class="st1" d="M94.8,195.3h31.3c0.8,0,1.4-0.6,1.4-1.4c0-0.8-0.6-1.4-1.4-1.4H94.8c-0.8,0-1.4,0.6-1.4,1.4
				C93.4,194.7,94,195.3,94.8,195.3z"/>
			<path class="st1" d="M68.6,200.6h58.1c0.4,0,0.8-0.3,0.8-0.8l0,0c0-0.4-0.3-0.8-0.8-0.8H68.6c-0.4,0-0.8,0.3-0.8,0.8l0,0
				C67.8,200.2,68.2,200.6,68.6,200.6z"/>
			<path class="st1" d="M68.6,203.6h58.1c0.4,0,0.8-0.3,0.8-0.8l0,0c0-0.4-0.3-0.8-0.8-0.8H68.6c-0.4,0-0.8,0.3-0.8,0.8l0,0
				C67.8,203.2,68.2,203.6,68.6,203.6z"/>
		</g>
		<g>
			<path class="st1" d="M587,195.4h0.7c1.6,0,2.9-1.3,2.9-2.9v0c0-1.6-1.3-2.9-2.9-2.9H587c-1.6,0-2.9,1.3-2.9,2.9v0
				C584.1,194.1,585.4,195.4,587,195.4z"/>
			<path class="st1" d="M575.1,195.4h0.7c1.6,0,2.9-1.3,2.9-2.9v0c0-1.6-1.3-2.9-2.9-2.9h-0.7c-1.6,0-2.9,1.3-2.9,2.9l0,0
				C572.2,194.1,573.5,195.4,575.1,195.4z"/>
			<path class="st1" d="M563.2,195.4h0.7c1.6,0,2.9-1.3,2.9-2.9v0c0-1.6-1.3-2.9-2.9-2.9h-0.7c-1.6,0-2.9,1.3-2.9,2.9v0
				C560.3,194.1,561.6,195.4,563.2,195.4z"/>
		</g>
	</g>
</g>
</svg>
