<?xml version="1.0" encoding="utf-8"?>
<!-- Generator: Adobe Illustrator 24.0.2, SVG Export Plug-In . SVG Version: 6.00 Build 0)  -->
<svg version="1.1" id="Calque_1" xmlns="http://www.w3.org/2000/svg" xmlns:xlink="http://www.w3.org/1999/xlink" x="0px" y="0px"
	 viewBox="0 0 728 591" style="enable-background:new 0 0 728 591;" xml:space="preserve">
<style type="text/css">
	.st0{fill:#2D2861;}
	.st1{fill:#ADEFF7;}
	.st2{fill:#355389;}
	.st3{fill:#352E73;}
	.st4{fill:#D1F7FA;}
	.st5{fill:#FF7A03;}
	.st6{fill:#FC008B;}
	.st7{fill:#7271B3;}
	.st8{fill:#FCC13F;}
	.st9{fill:#8CD334;}
	.st10{fill:#F7A491;}
	.st11{fill:#EFA800;}
	.st12{fill:#FEE2BF;}
	.st13{fill:#450077;}
	.st14{fill:#452A77;}
	.st15{fill:#F48C7F;}
	.st16{fill:#EFC300;}
	.st17{fill:#F47458;}
	.st18{fill:#F47257;}
	.st19{fill:#FFA42F;}
	.st20{fill:#F8A492;}
	.st21{fill:#F3FFFF;}
	.st22{fill:#2BA14C;}
	.st23{fill:#D6007E;}
	.st24{fill:#184655;}
	.st25{fill:#EFEFEF;}
	.st26{fill:#FFFFFF;}
	.st27{font-family:'ChalkboardSE-Regular';}
	.st28{font-size:12px;}
</style>
<g>
	<g>
		<path class="st0" d="M249.8,488.4l-173.5-0.1c-5.8,0-10.7-3.3-11.4-7.8L31.2,265.1c-0.6-3.6,3.1-6.7,7.8-6.6l168.6,4.7
			c3.7,0.1,6.8,2.3,7.3,5.1L249.8,488.4z"/>
		<path class="st1" d="M48.1,265.1l152.3,4.3c3.7,0.1,6.8,2.3,7.3,5.1l33,208l-167.5-0.7L40.3,271.7C39.8,268.1,43.5,265,48.1,265.1
			z"/>
		<path class="st2" d="M411.1,503.1H173.2c-6.8,0-12.3-4.8-12.3-10.7v-0.1h262.5l0,0C423.5,498.3,417.9,503.1,411.1,503.1z"/>
		<path class="st3" d="M293.7,503.1H85.4c-5.9,0-10.8-6.6-10.8-14.7v-0.1h229.9l0,0C304.5,496.5,299.7,503.1,293.7,503.1z"/>
	</g>
	<g>
		<path class="st1" d="M191.7,347.1c0,0,21.4,4.8,40.4-11.6l-9.6-17.6c0,0-22.1,15.4-30.6,8.9L191.7,347.1z"/>
		<path class="st4" d="M212.9,333.3l-11.8-19.4c0,0,23.1-12.7,27.5-22l15.1,13.6C243.7,305.6,226,326.3,212.9,333.3z"/>
	</g>
	<g>
		<path class="st5" d="M686.5,501.6H28.9c-1.8,0-3.2,0.6-3.2,1.3l0,0c0,0.7,1.4,1.3,3.2,1.3h657.6c1.8,0,3.2-0.6,3.2-1.3l0,0
			C689.7,502.1,688.3,501.6,686.5,501.6z"/>
	</g>
	<polygon class="st6" points="104.5,272.7 105,276.3 108.6,277.5 108.9,281.7 113.1,281.7 113.6,286.4 117.5,286.9 118.7,291.3 
		117,291.8 116.1,288.5 112,287.9 111.5,283.4 107.2,283.4 106.9,278.8 103.4,277.7 102.9,274.3 100.5,274 100.6,272.3 	"/>
	<polygon class="st7" points="525.9,114.8 520.8,115.3 519.1,107.3 511.7,107.2 509.4,101.4 506.5,102.5 509.5,110.3 516.6,110.4 
		518.4,118.7 525.9,118 	"/>
	<g>
		<path class="st8" d="M176.4,209.4l4.7-0.3c0,0,6.3,4,6.6,5.6c0.3,1.6-0.4,5,0.6,5.4c1,0.3,2.9,0.5,4-1.7c0.8-1.6-0.4-7.1,0.1-7.5
			c0.3-0.3,3-0.5,5-0.7c1.3-0.1,2.4-0.9,2.9-2.1l0,0c0.3-0.8,0.1-1.8-0.6-2.3l-1.1-0.8l0.7-1.2c0.5-0.9,0.3-2-0.6-2.6l-0.9-0.6
			l0.5-0.7c0.7-0.9,0.4-2.2-0.6-2.8l-0.8-0.5l0.1-0.2c0.4-0.9,0-1.9-0.8-2.4l-0.8-0.4l-12.5,0.8c-1.2,0.1-2.3,0.4-3.4,0.9l-4.4,1
			c-0.5,0.1-0.8,0.6-0.7,1l0.9,11.1C175.4,209,175.9,209.4,176.4,209.4z"/>
	</g>
	<polygon class="st6" points="629.7,289.2 625.1,288.8 624.5,293.1 620,292.9 618.9,296.9 615.4,297.3 615.7,299.1 620.2,298.5 
		621.3,294.7 626,294.9 626.6,290.7 630.8,291 	"/>
	<polygon class="st6" points="377.8,138.4 382.4,138.3 382.6,134 387.1,133.6 387.7,129.5 391.1,128.7 390.7,127 386.2,128.1 
		385.6,132 380.9,132.4 380.7,136.6 376.6,136.7 	"/>
	<polygon class="st8" points="79.5,321.8 82.3,324.2 85.7,322.7 88.7,325.7 91.9,322.9 95.3,326.1 98.6,324 102.4,326.5 101.5,328 
		98.6,326.1 95.2,328.4 91.8,325.3 88.6,328.1 85.3,324.8 81.9,326.3 79.4,324 77.3,325.4 76.3,324 	"/>
	<g>
		<path class="st9" d="M547.4,416.7H341.1c-7.9,0-14.3-5.5-14.3-12.2v-7.3c0-6.8,6.4-12.2,14.3-12.2h206.4l0,0
			c-9.4,8.8-9.6,22.3-0.4,31.3L547.4,416.7z"/>
		<path class="st4" d="M425.7,388.4c-7,0-12.8,5.2-12.8,11.7v0c0,6.5,5.7,11.7,12.8,11.7h117.8c-4-7.4-3.7-16.3,0.9-23.4H425.7z"/>
		<path class="st6" d="M566,415.7H323.3c-7.5,0-13.6,6.4-13.6,14.2v12c0,7.9,6.1,14.2,13.6,14.2H566l-0.1-0.1
			C555.5,444.7,555.5,426.9,566,415.7z"/>
		<path class="st4" d="M561.7,421.7H432c-7.5,0-13.6,6.4-13.6,14.2l0,0c0,7.9,6.1,14.2,13.6,14.2h129.7
			C556.9,441.3,556.9,430.5,561.7,421.7z"/>
		<path class="st8" d="M561.7,456.1H281.9c-8.7,0-15.7,7.2-15.7,16v13.5c0,8.8,7,16,15.7,16h279.8l-0.1-0.2
			C549.6,488.7,549.6,468.7,561.7,456.1z"/>
		<path class="st4" d="M556.7,462.8H407.1c-8.7,0-15.7,7.2-15.7,16v0c0,8.8,7,16,15.7,16h149.6C551.2,484.9,551.2,472.7,556.7,462.8
			z"/>
		<g>
			<path class="st1" d="M523.5,355h-88.9c-3,0-5.5-2.5-5.5-5.5v-1.6c0-3,2.5-5.5,5.5-5.5h88.9c3,0,5.5,2.5,5.5,5.5v1.6
				C529.1,352.5,526.6,355,523.5,355z"/>
			<path class="st3" d="M435.1,357.3l0.7-0.9l-50.4-1.3c0,2.2,0,18.3,0,20.7l51.4-1.9l-2.2-1.9C430.1,368,430,360.8,435.1,357.3z"/>
			<path class="st3" d="M533.7,385H382.6c-1.2,0-2.2-1-2.2-2.2v0c0-1.2,1-2.2,2.2-2.2h151.1c1.2,0,2.2,1,2.2,2.2l0,0
				C536,384,535,385,533.7,385z"/>
			<path class="st5" d="M534.3,380.5H383.6v-5.8c0-1.6,1.3-2.9,2.9-2.9h139.1C530.4,371.8,534.3,375.7,534.3,380.5L534.3,380.5z"/>
			<path class="st5" d="M520.5,320.1L388.4,346c-15.2,3.4-9.4,16.6-6.8,16.6l154.7-16.6C536.4,340.8,539.6,317.3,520.5,320.1z"/>
		</g>
		<g>
			<path class="st10" d="M336.7,187.6c0,0-14,22.2-14.5,22.2c-0.7,0-6.4-13.1-5.1-18.7c1-4.3-0.4-10.5-0.4-10.5s-8.7,3.6-8.1,9.1
				c0.3,3,1.9,8.9,1.9,8.9s1.4,16.6,4.2,26.8c2.7,9.7,31.3-23,31.3-23L336.7,187.6z"/>
			<path class="st11" d="M346.1,202.6l-11.1-15c0,0-7.9,10.7-12.1,17.1c1.7,1.9,5,5.2,6.6,7.3c1.1,1.5,2,3.6,3,5.3
				C339.5,210.6,346.1,202.6,346.1,202.6z"/>
			<path class="st10" d="M313.2,183.3c0,0,3.6-3.9,4.4-2.6c0.8,1.3,1.1,4.6,0.4,4.4c-0.6-0.1-0.8-2.3-2.5-1.6
				C315.1,183.8,312.7,184.8,313.2,183.3z"/>
			<g>
				<path class="st5" d="M327.2,168.4l1.7,0.4c1,0.3,1.7,1.1,1.7,2.2l0.1,1.8c0,1.2-0.8,2.2-1.9,2.4l-1.8,0.3L327.2,168.4z"/>
				<path class="st3" d="M324.7,176.6l-1.9,1.6l-0.2,1.9c0,0-2.2,11.7-3.4,13.5c-1.2,1.8-5.4,0.9-5.7,0.1c-0.3-0.8,2.2-7.9,2.2-7.9
					l-0.7-5.6l-2.2-1.8L324.7,176.6z"/>
				<path class="st5" d="M309.8,165.4l15.5,1.4c1.4,0.1,2.5,1.3,2.5,2.8l0,5.6c0,1.4-1,2.6-2.4,2.8l-15.2,1.9L309.8,165.4z"/>
				<path class="st5" d="M309.9,164.8l0.6,15.2c0,1.1-0.7,2.1-1.8,2.4l-27.7,6.5l-3.2-30.1l30,3.9
					C309,162.8,309.9,163.7,309.9,164.8z"/>
				<path class="st3" d="M274.4,174.3c0.7,8.3,3.7,14.8,6.7,14.6c2.9-0.3,4.7-7.2,4-15.5c-0.7-8.3-3.7-14.8-6.7-14.6
					C275.5,159,273.7,166,274.4,174.3z"/>
				<path class="st12" d="M281.2,186.6c1.4-1.5,2.5-6.6,1.9-13.1c-0.7-8.2-3.5-12.6-4.5-12.7v0c0,0-0.1,0.1-0.3,0.2
					c-1.4,1.5-2.5,6.6-1.9,13.1c0.7,8.2,3.5,12.6,4.5,12.7c0,0,0,0,0,0C280.9,186.9,281,186.8,281.2,186.6z"/>
			</g>
			<path class="st10" d="M312,188l2.5-1.8c0,0,1.8-1.1,3.3-0.5c1.6,0.6,2.4-1.3,0.7-1.8c-1.7-0.5-2.9-0.6-2.9-0.6s4-0.1,4.1-0.3
				c0.9-1-0.6-2.3-3.8-1.7S312,188,312,188z"/>
			<path class="st10" d="M321.1,185.8c0,0-3.6,1.9-3.4,3.3c0.2,1.4,2.7,0.5,2.7,0.5s2.9-3.9,1-4.2L321.1,185.8z"/>
		</g>
		<path class="st10" d="M420.6,322.9c0,0-0.7,8.3-0.7,8.3c-0.2,1.1-1,3.7-1,4.6c-0.1,3.6,16.2-2.6,12.6-4.3c-0.3-0.2-2-1.3-2.1-2.5
			c-0.1-1.9-0.4-5.7-0.4-5.7L420.6,322.9z"/>
		<path class="st0" d="M431.5,331.5c0,0-3.8,1-5.7,1.2c-1.9,0.2-4.4-2.2-5.8-1.6c-1.5,0.7-1.7,9.1-1.7,9.1s19.6-3.3,25.4-5
			C445.8,334.5,441.1,332.5,431.5,331.5z"/>
		<path class="st10" d="M361.7,369.6c0,0-0.5,8.3-0.5,8.4c-0.2,1.1-0.9,3.7-0.9,4.6c0,3.6,16.1-3.1,12.5-4.7
			c-0.3-0.1-2.5-2.1-2.7-3.3c-0.2-1.9-0.1-4.9-0.1-4.9L361.7,369.6z"/>
		<path class="st0" d="M372.8,377.8c0,0-3.8,1.1-5.7,1.4c-1.9,0.3-4.5-2.1-5.9-1.4c-1.5,0.7-1.5,7.2-1.5,7.2s22.9,1,28-0.4
			C390.1,383.9,380.5,380.4,372.8,377.8z"/>
		<path class="st13" d="M376.1,239.7l13,5c0,0,45.5,5.2,48.6,10.1c5.2,8.1-7.7,70.5-7.7,70.5h-11.2l1.1-44.1l2.4-10
			c-3.4-1-58.9,2.4-58.9,2.4L376.1,239.7z"/>
		<path class="st14" d="M388.4,243.8l-3.2,66.9L372.8,373l-11.4-0.1c0,0-0.9-15.2,0.9-37.4c1.1-12.6,3-13.7,2.9-27.9
			c-0.1-15.8-6.4-34.2-6.8-40.5c-0.1-1.6-1.9-11.4-0.9-12.5C365,246.8,388.4,243.8,388.4,243.8z"/>
		<path class="st15" d="M452.8,173.5c0-1.4-13.8,1.2-15.3,1.2c-0.9,0-2.7,1.5-4,2.8c-0.6,0.6-1.5,1-2.4,1c-2.2,0.1-4.4,0.2-4.4,0.2
			s-23.3,1.1-24.6,1.2l-35.6-5.2l-0.2,17.2c0,0,30.5-0.9,31.8-0.6c1.3,0.3,27.7-4.4,34.2-5.5c0,0,9.8-0.9,10.7-2.8
			c0.9-1.8-0.5-5.1,0.3-5.9C444.3,176.3,452.8,174.9,452.8,173.5z"/>
		<path class="st11" d="M389.5,176.6l-22.8-1.9l-0.2,17.2c0,0,14.9-0.2,24.3-0.4C389.7,187.1,388.9,181.1,389.5,176.6z"/>
		<path class="st16" d="M356.2,177.1c0,0,8.3-2.9,10.9-2.3c2.8,0.7,11.4,13,17.8,53.9c0.9,5.9,4.2,15.9,4.2,15.9s-20,13.3-32,13.4
			c0,0-2-19.3-3.7-23.5c-1.7-4.3-18.8-42.5-19-45.6c-0.1-1.7,4.6-4.2,6.4-5.4C345.3,180.4,356.2,177.1,356.2,177.1z"/>
		<path class="st10" d="M349.6,166.4l6.6,11.2c0,0,0.2,8.7-4.3,9.1c-3.7,0.3-7.9-5-7.9-5s-0.9-7.5-2.8-10.6
			C339.4,167.9,349.6,166.4,349.6,166.4z"/>
		<path class="st17" d="M341.3,171.1c-1.9-3.2,8.4-4.7,8.4-4.7l0.5,0.9c0,0.8-0.1,1.5-0.4,2.1c-1.2,3.1-3.9,5.7-6.7,6.9
			C342.7,174.4,342.1,172.4,341.3,171.1z"/>
		<g>
			<path class="st10" d="M344.4,148.9c0,0-8.4-4-12.4,2.1c-2.6,3.9-1,11.6,1.5,17c0.2-0.1,0.4-0.2,0.6-0.2c1.5-0.5,3,0.2,3.4,1.4
				c0.3,1.1-0.3,2.4-1.6,2.9c0.7,0.9,1.4,1.6,2,1.9c3.6,2,10-2,12.1-7.2C352,161.6,344.7,148.7,344.4,148.9z"/>
			<path class="st0" d="M331.3,142.8c4.6-0.8,8.4,0.6,9.8,1.3c2-0.5,5.1-0.5,9.5,2.8c5.5,4.1,5.5,11.2,2.8,15.7
				c-2.7,4.5-1.3,7.9-1.3,7.9l-1.3-1.6c-1-1.2-1.7-2.5-2.1-4c-0.2-0.9-0.4-1.9-0.4-2.8c0.1-2.4-3.3-2.5-4.8-3.8
				c-1.1-1-2.3-3.9-4.2-5.6l-1.8-1.1c0,0-3.6-1-6,0.6C329,154,325.4,143.8,331.3,142.8z"/>
			<path class="st10" d="M344.6,160.8c0.6,1.7,1.9,2.7,2.9,2.4c1-0.4,1.3-2,0.6-3.7c-0.6-1.7-1.9-2.7-2.9-2.4
				C344.2,157.5,344,159.1,344.6,160.8z"/>
		</g>
	</g>
	<g>
		<path class="st0" d="M581.6,335.9c-1.8-3.6-3.1-9.4-2.5-14.3c0.5-4,2.8-7,6.1-8.8c9.5-5,11,3.5,25.6,0.1c4.6-1,8.7-0.5,13.1,0.2
			c8,1.3,18.1,8.1,17.6,19.7c-1.1,28.6-39.3,14-45.4,12.6C591.3,344.4,583.9,340.5,581.6,335.9z"/>
		<path class="st10" d="M580.6,339.7c0,0-9.7-7.9-11.9-11.4c-2.2-3.5-11.3-22.3-11.5-23.6c-0.2-1.3,3.3-5.9,2.4-6.8
			c-0.6-0.5-3.9,0.7-5.5-1.1c-0.9-1,0.4-5-0.6-5.5c-1-0.4-2.9,5.5-3.6,10.5c-0.1,1.2,8.5,25.2,10.8,30c2.3,4.8,15.3,15.8,15.3,15.8
			L580.6,339.7z"/>
		<path class="st18" d="M553.8,297.1c0.1,0,0.6,0,0.8,0.1l0.9,0c0,0-2.2,0.7-2.9,2.5C552.6,299.7,552.8,298.4,553.8,297.1z"/>
		<path class="st1" d="M569.7,293c-8,2.3-16,4.7-24,7c-4.3-14.9-4.3-30.7,0-45.6c8,2.3,16,4.7,24,7
			C566.7,271.7,566.7,282.6,569.7,293z"/>
		<path class="st10" d="M556.3,299l-2.8,0.9c0.8-3.5,2.7-3,2.7-3.6l-1.4-4.2c-0.1-0.3-0.1-1.2,0.5-1.2c0.3,0,0.9,0.6,1.1,0.9
			c0,0,1.8,3.2,2.3,4.2c0.3,0.5,0.9,2.2,0.9,2.2l-1.8,0.6L556.3,299z"/>
		<path class="st8" d="M578.7,337l-4.6,10.5c0,0,12.7,8.7,16.7,7.9c4-0.8-0.1-13.4-0.1-13.4L578.7,337z"/>
		<path class="st15" d="M602.2,491L602.2,491c0,0-0.9-23.5-8-44.2l21.1-32.2l-3.2-24.1c0,0-13.7-5.4-9.7,1.9
			c0.3,0.6-9.4,22.9-21.2,47.4c-3.3,6.7,11.5,35.7,14.6,51l0,0c0.1,1.2,0.3,1.4,0,1.9c-0.5,1-1.7,1.7-2.4,2.4
			c-0.3,0.3-0.9,2.2-1.1,2.4c-3.5,2.8-4.8,3.9-3.8,3.6l15.4-1.9c0,0,0.7-0.5,1.1-1.9c0.4-1.4-1.7-3.7-2.3-5
			C602.5,492,602.4,491.6,602.2,491z"/>
		<path class="st10" d="M681.6,467l-1.4-17.6c0,0-0.4-0.8-1.7-1.4c-1.3-0.6-4,1.1-5.3,1.4c-0.6,0.1-1.4,0.4-2.3,0.3
			c-7.4-0.8-29.8-6-38.3-4.7c-1.8-10.9,0.6-37.7-0.7-44.6c-1.5-7.5-12.5-16.8-12.5-16.8l-18.2,6.1l7.8,17.2c0,0,9.8,46.7,12.3,48.5
			c6.3,4.4,40.2,1,49,0.4c1.2,0.1,2.2,0.4,2.7,0.7c0.9,0.7,1.8,1.5,2.4,2.4c0.2,0.3,0.9,1.3,1,1.5c2.2,3.9,2.9,4.9,3.9,6.1
			C681.1,467.4,681.7,468,681.6,467z"/>
		<path class="st0" d="M675.5,459c0.9-4.7-0.1-8.1-1-10c1.4-0.6,3.1-1.4,4.1-1.1c1.3,0.4,1.6,0.9,1.6,1.5c0.4,4.3,1.2,15.6,1.5,18.8
			c0,0.5-0.5,0.7-0.8,0.5C679.9,468,675.8,459.4,675.5,459z"/>
		<path class="st0" d="M593.7,495c4.8,0.1,8-0.3,9.7-1.4c0.8,1.2,1.9,2.8,1.8,3.9c-0.1,1.3-0.7,1.7-1.2,1.9
			c-4.1,1.1-13.4,2.5-16.6,2.5c-2.9,0-3.2-0.7-3-1.1C584.8,499.5,593.4,495.2,593.7,495z"/>
		<path class="st0" d="M601.3,391.4l0.9,2l-21.4,44.9c0,0,21.4,11.6,51.7,5c0,0,2.1-39.3,0-44.2c-2.1-5-12.7-17.4-12.7-17.4
			L601.3,391.4z"/>
		<path class="st8" d="M597.1,337.9c0,0,3.7-1.1,7.4-0.3c0.7,0.2,1.4,0.5,1.9,1c4.1,4.1,7.5,25.6,8.7,29.9
			c1.2,4.3,5.9,14.6,5.9,14.6s-12.6,11.3-19,10.1c0,0-14-30.9-14.7-34c-0.7-3.1-0.3-13,0.3-14.6
			C588.3,343.1,597.1,337.9,597.1,337.9z"/>
		<path class="st10" d="M592,328.3c0.9,1.2,3.3,8.1,5.2,9.6c1.9,1.5-0.1,9.7-4.9,10.8c-1.4,0.3-1.5-6.1-1.7-6.7
			c-1.2-3.4-4.1-8.5-5.2-10.2L592,328.3z"/>
		<path class="st15" d="M590.1,340.5c1.3-0.5,2.5-1.6,3.3-3.3c0.7-1.3,0.9-2.7,0.9-4c-1-2.1-1.9-4.2-2.3-4.9l-6.6,3.5
			C586.4,333.2,588.7,337.2,590.1,340.5z"/>
		<path class="st10" d="M587,316.7c0,0,3,0.4,5.1,3.2c2.1,2.7,4.4,11.2-0.9,15.8c-5.3,4.6-10.6-0.6-11.4-6.2
			C579.1,324,579.2,316.5,587,316.7z"/>
		<path class="st10" d="M578.4,328.5c0.4,1.3,1.3,2.2,2,2c0.7-0.2,1.1-1.5,0.7-2.8s-1.3-2.2-2-2C578.4,325.9,578,327.2,578.4,328.5z
			"/>
		<path class="st0" d="M585.8,316.2c0,0,4.6,8.1,7.8,8.5c3.3,0.4,3.7,4.7,3.7,4.7s-1.1-9.9-4.4-11.8
			C589.8,315.7,585.8,316.2,585.8,316.2z"/>
		<path class="st10" d="M592.8,326.9c-0.3,1.4,0.3,2.7,1.2,2.9c0.9,0.2,1.9-0.8,2.2-2.2c0.3-1.4-0.3-2.7-1.2-2.9
			C594,324.4,593.1,325.4,592.8,326.9z"/>
		<path class="st10" d="M613.3,344.5c0,0,17.5,16.9,21.4,20.3c3.6,3.1,16.6,16.4,17.2,16.9c0.6,0.4,9.7-2.1,9.7-0.9
			c0,1.2-4.8,1-4.6,2.4c0.2,1.3,9.8,8.1,9.1,8.6c-1.3,1-6-3.9-6.6-3.3c-0.5,0.6,5.4,4.6,4.8,5.9c-0.6,1.3-5.2-4.4-5.9-4.2
			c-0.6,0.2,3.7,5.9,2.4,6.2c-0.7,0.2-3.7-5.1-4.3-4.5c-0.6,0.7,1.1,5.1,0.2,5.2c-0.9,0.1-0.9-3.9-2.7-5.6c-1.8-1.7-2.1-3.9-5.7-5.9
			c-1.8-1-13.7-10-23.5-18c-10-8.2-17.9-15.3-17.9-15.3L613.3,344.5z"/>
		<path class="st19" d="M604.5,337.7c0,0-3.8,6,1.4,13.2c5.3,7.5,11.3,10.9,11.3,10.9l7.3-7.9C624.5,353.9,614.4,340.4,604.5,337.7z
			"/>
	</g>
	<g>
		<path class="st10" d="M232.9,485.6c0,0-1.4,7.9-1.4,7.9c-0.1,1,0,3.6-0.2,4.5c-0.8,3.4-14.4-6.4-10.6-7.1c0.3-0.1,2.2-0.7,2.5-1.8
			c0.6-1.7,1.8-5.2,1.8-5.2L232.9,485.6z"/>
		<path class="st5" d="M220.7,491c0,0,3.3,1.9,5,2.5c1.7,0.7,4.6-0.9,5.8-0.1c1.3,1-0.8,8.5-0.8,8.5s-20-3-25-6
			C203.8,494.8,212.9,491.7,220.7,491z"/>
		<path class="st10" d="M311,448.7c0,0,7.9-1.2,7.9-1.2c1-0.3,3.4-1.1,4.4-1.2c3.5-0.3-1.6,15.6-3.4,12.3c-0.2-0.3-1.4-1.8-2.5-1.8
			c-1.8,0-5.5-0.1-5.5-0.1L311,448.7z"/>
		<path class="st5" d="M319.9,458.6c0,0,0.7-3.7,0.8-5.6c0.1-1.9-2.3-4.1-1.9-5.5c0.5-1.5,8.4-1.9,8.4-1.9s3.4,20,2.1,25.6
			C328.8,473.5,323,465.8,319.9,458.6z"/>
		<g>
			<path class="st20" d="M270.2,353.5l-10.2,4.3l2.2,17.4c-0.3,1.1-16,21.1-16,21.1s1.6,2.7,3.6,3.2c1.6-3.8,23.3-21.1,23.3-22.2
				C273.1,376,270.2,353.5,270.2,353.5z"/>
			<g>
				<polygon class="st4" points="277.6,409.2 237,392.8 248.6,365.6 287.2,385 				"/>
				<polygon class="st21" points="280.7,408.4 238.6,392.2 250.2,364.9 292.3,381.1 				"/>
				<polygon class="st7" points="277,410.2 234.9,394 246.4,366.7 288.6,382.9 				"/>
			</g>
		</g>
		<path class="st22" d="M277.2,383.3l-5.1,15.4c0,0-3.9,40-1.9,58.6c0.8,7.8,45.4,1.4,45.4,1.4l-0.8-12.8l-28-0.9l10.6-30.8
			l-0.2-25.6L277.2,383.3z"/>
		<path class="st9" d="M306,396c1.7,10.5-8.7,18.4-8.7,18.4l-43,37.1l-19.8,38.9c0,0-8.3-0.5-11.6-3.3c0,0,8.6-32.6,15.8-45.9
			c6.6-12.3,35-44.2,35-44.2l22.3-22.1C296,374.8,305.1,390.5,306,396z"/>
		<path class="st23" d="M260.2,364.2l12.6-2.6c0,0-2.7-9.8-4.3-14.4c-1.9-5.6-5.3-12.3-6-11.8c-1.7,1.2-3.6,2.5-4.5,5
			C255.1,349.3,260.2,364.2,260.2,364.2z"/>
		<path class="st20" d="M321.1,396.6c0.9-3.5,1.4-3.2,1.5-3.6c0.1-0.5-2.5-7.4-2.5-7.4s-7.7-20.2-8.1-21.3L296,348.5l5.7-9.9
			c0,0,16.9,17.7,17.6,18.8c0.7,1.1,7.9,29.5,8.6,32c0,0,2,2.7,3.1,4.4c1.2,1.7,1.5,3.8,1.8,4.4c0,0.1,0.8,1.9,1.1,4.4
			c0.3,2.1-1,0.2-1,0.2s-1.2-3.9-1.5-3.7c-0.2,0.1,0.6,2.2,0.9,4.5c0.1,0.6,0.2,1.2,0.2,1.8c0.2,1.4-0.7,2-1.1,0.5
			c-0.2-0.5-0.4-1.4-0.5-2c-0.1-0.7-0.4-1.3-0.6-1.9c-0.3-1.1-0.5-2-0.6-1.9c-0.1,0-0.3-0.1-0.2,0.5c0.1,0.8,0.6,2.4,0.7,3.5
			c0,0.7,0.1,2,0.1,2s-0.2,2.1-0.3,2.1c-0.7,0.2-1-1.3-0.9-2.2c-0.2-0.6-0.3-2-0.3-2s-0.8-2.9-1.3-2.8c-0.2,0,0.1,1.9,0.1,3.7
			c0,1.7-0.3,3.4-0.6,3.5c-0.6,0.1-0.8-1.8-0.8-1.8s-0.1-1.3-0.1-1.8c-0.1-0.5-0.4-2-0.4-2s-1.4-5.3-1.8-5.1
			c-0.4,0.1-1.2,0.9-1.3,1.2c0,0.4,0.3,1,0.2,1.4c0,0.4-0.4,0.8-0.8,0.8c-0.4,0-1-1.8-1-1.8S320.9,397.6,321.1,396.6z"/>
		<path class="st6" d="M278.2,329.8c0,0,8.3-1.9,10.4-1.2c2.4,0.7,8.9,5.9,8.9,5.9s-0.9,37.5,1.6,43.3c2.5,5.8,6.9,14.3,6.9,14.3
			s-23.5,8.8-33.7,8.2c0,0-1.8-14.5-3-18c-1.2-3.6-11.7-39.7-11.2-41.9c0.5-2.2,2.5-4,6.5-6.3C268.7,331.8,278.2,329.8,278.2,329.8z
			"/>
		<path class="st10" d="M273.1,320.7l4.9,9.1c0,0-1.7,14-5.5,14.1c-3.2,0-5-11-5-11s-0.3-6.1-1.8-8.8
			C264.3,321.4,273.1,320.7,273.1,320.7z"/>
		<path class="st17" d="M265.7,324c-1.4-2.7,7.4-3.4,7.4-3.4s0,0.5-0.1,1c-0.8,4-3.4,7-5.9,7.8C266.9,327.9,266.3,325.1,265.7,324z"
			/>
		<g>
			<path class="st10" d="M268.6,305.3c0.2-0.2,6.4,12.1,4.2,16.8c-2.3,4.6-8.7,7.9-12,5.8c-3.7-2.3-8.3-16.1-4.1-21.4
				C260.8,301.1,268.6,305.3,268.6,305.3z"/>
			<path class="st24" d="M262.8,300.1c1.6,0.3,3.2,0.4,4.9,0.5c1.8,0.1,4.1,0.9,6.9,3.3c5,4.1,4.1,10.3,1.7,14.5
				c-1.9,3.4-1.8,4.7-1.8,4.7c-0.9-1.1-2.2-2.1-2.7-3.3c-0.3-0.8-0.4-1.1-0.3-1.9c0.3-2.1-3-2.5-4.4-3.8c-1-1-2-3.7-3.6-5.4
				l-1.7-1.1c0,0-3.4-1.2-5.8,0.2C253.6,309,251.7,298.3,262.8,300.1z"/>
			<path class="st10" d="M268,316.3c0.5,1.6,1.7,2.6,2.7,2.4c1-0.3,1.3-1.8,0.8-3.4c-0.5-1.6-1.7-2.6-2.7-2.4
				C267.9,313.2,267.5,314.7,268,316.3z"/>
		</g>
		<path class="st23" d="M309.6,344l-8.1,11.4c0,0-6-3.2-10.3-7c-7.4-6.5-6.2-19.9-3.4-20C294.1,328.1,309.6,344,309.6,344z"/>
	</g>
	<g>
		<g>
			<g>
				<path class="st10" d="M204.2,365.3c0,0-3.3,0.6-3.3,0.3c0-0.3,1.2-0.2,5.1-1.7c1.4-0.6,1.4-2-1.8-0.7c-0.6,0.2-1.1,0.2-1.6,0.3
					c-1,0.2-1.7,0.4-1.7,0.3c0-0.1-0.2-0.2,0.3-0.4c0.6-0.3,2-0.5,2.9-1c0.5-0.3,1.6-0.8,1.6-0.8s1.6-1,1.6-1.1
					c-0.1-0.7-1.5-0.3-2.1,0.1c-0.5,0.1-1.6,0.6-1.6,0.6s-2.5,0.5-2.5,0.1c-0.1-0.3,5.6-2.9,5.4-3.6c-0.2-0.8-3.1,0.7-3.3,0.8
					c-0.4,0.2-1.7,0.5-1.7,0.5s-4.5,1.1-4.5,0.7c0-0.4,0.6-1.1,0.9-1.2c0.3-0.2,0.5-0.4,0.8-0.6c0.3-0.2,0.4-0.5,0.2-0.9
					c-0.2-0.4-1.3,0.1-1.7,0.3c-1.2,0.8-3.9,3.6-4.2,3.9c-0.4,0.3-21.5-0.3-23.6-0.7l-0.4-12.8l-10.3,3.1l3,17.7
					c1.8,5.2,29.8-1.7,30.7-1.9c0,0,2.7,0.3,4.4,0.5c1.7,0.3,3.4-0.3,3.9-0.3c0.1,0,1.8,0.1,3.7-0.7
					C206.1,365.6,204.2,365.3,204.2,365.3z"/>
				<path class="st17" d="M194.9,362.8c0,0,2.3-1.1,2.2-2.9c0,0,0.4,1-0.2,1.9C196.4,362.7,194.9,362.8,194.9,362.8z"/>
			</g>
			<path class="st10" d="M98.9,430.4c-5.9-0.2-11.1-1.3-11.8-1.5c-0.3-0.1-1.5-1.1-1.8-1.2c-6.8,1.7-10.2,7.1-12.5,12
				c3.4-1.5,7.8-3.8,8.6-3.7c1.3,0.2,6.5,0.6,14.1,3.1C95.4,435.4,97.3,433.7,98.9,430.4z"/>
			<path class="st6" d="M86.9,428.8c-1.4-2-5.1-5-5.5-4.8c-0.5,0.3-16,13-15.8,16.6c0.1,2.2,2.9,0.8,7.1-1
				C75.1,434.8,85.6,427.9,86.9,428.8z"/>
			<path class="st10" d="M163.5,478.7c0.8,4.7,2.5,15.3,2.6,16.3c0,0.3,0.6,1.4,0.8,1.6c6.6,1.7,12.2-1.3,16.5-4.3
				c-3.6-0.3-8.3-0.6-9.1-0.8c-0.8-0.3-1.9-1.3-2.2-3.2c-0.6-3.9-0.3-8.1-2.2-12.1C168.2,479.3,166.5,476.7,163.5,478.7z"/>
			<path class="st6" d="M166,494.9c0.2,2.3,1.4,7.2,1.8,7.2c0.6-0.1,19.8-4.8,21.9-7.4c1.3-1.6-2-2-6.4-2.4
				C179,495.3,166.7,496.3,166,494.9z"/>
			<path class="st11" d="M158,379.3l6.8-0.2c0,0-1.2,12.2-1,16.2c0.2,4,7.6,38.6,7.5,43c-0.2,4.3,2.3,48.4,2.3,48.4l-9.1,0.1
				c0,0-6.5-28.8-6.7-34.8c-0.2-6.5-0.2-12.3-0.2-12.3l-12.9-33.2L158,379.3z"/>
			<path class="st16" d="M164.8,379.1c0,0-20,68.7-26.1,70.6c-7.7,2.4-51.8-11.4-51.8-11.4l2.9-9.9c0,0,25.4,0.8,40.5,4.6
				c0,0-0.3-39.2,4-44.8c4.2-5.6,10.5-12.5,10.5-12.5l20.9,1L164.8,379.1z"/>
			<path class="st5" d="M157.4,296.8c-2.5,3-6,2.2-9.9,2.5c-2.6,0.2-4.9,4-5.2,7.2c-0.2,2.2-0.9,4.6-3.5,5c-1,0.1-2,0-3,0
				c-10.7-0.3-14.5,11.2-11.4,19.8c2.6,7.3,9.4,10.8,16.5,12.8c3.3,0.9,5.7,1.9,9.2,1.2c4-0.9,7.8-2.9,11.1-5.1
				c5.9-3.9,1-7.8,2.9-11c1.9-3.3,10.3-1.8,12.6-8.8c2.6-7.7,1.7-12.7-0.5-17.1c-3.6-7.3-13.2-9.3-16.6-7.9
				C158.7,295.6,158,296.1,157.4,296.8z"/>
			<path class="st9" d="M170.2,329.3c-2.8-1.1-9.8-1.2-9.8-1.2s-5.5-0.1-14.2,2.1l-1.6,16c0,0,3.2,15.2,2.2,19.8
				c-0.8,3.7-4.1,9.9-4.1,9.9s-0.2,0.7,13.4,3.5c5.4,1.1,9.7,0,9.7,0s0.3-6,2-11.6c2.7-9.3,7.3-20.2,7.6-21.6
				C175.8,343.8,173,330.4,170.2,329.3z"/>
			<path class="st10" d="M161.7,318.9c0,0-0.9,6.5-2,8.9c-1.1,2.3,0.7,11.3,5.8,13.1c5.1,1.8,1.1-10.4,1.4-12.9
				c0.3-2.5,2.7-9.9,2.7-9.9L161.7,318.9z"/>
			<path class="st17" d="M168.5,321.8c0.6-2,1.1-3.7,1.1-3.7l-7.9,0.9c0,0-0.2,1.3-0.5,3C164,323.5,166.5,323.2,168.5,321.8z"/>
			<path class="st10" d="M164.9,301.1c0,0-3.1,0.6-5.2,3.4c-2,2.8-3.7,11.4,2.4,15.7s11.3-1.2,11.6-6.7
				C174.1,308,173.2,300.5,164.9,301.1z"/>
			<path class="st10" d="M175.3,311.9c-0.6,1.3-1.7,2.1-2.5,1.8c-0.8-0.3-0.9-1.7-0.3-3c0.6-1.3,1.7-2.1,2.5-1.8
				C175.8,309.2,175.9,310.5,175.3,311.9z"/>
			<path class="st10" d="M159.3,312.3c0.4,1.5-0.1,2.9-1.1,3.1c-1,0.3-2.1-0.7-2.5-2.2c-0.4-1.5,0.1-2.9,1.1-3.1
				C157.8,309.8,158.9,310.8,159.3,312.3z"/>
			<g>
				<rect x="167.6" y="351.8" class="st7" width="39.8" height="21.6"/>
				<rect x="194.9" y="351.8" class="st21" width="12.4" height="21.6"/>
				<path class="st10" d="M195.5,373.8c0,0-3.9,0.5-3.9,0.2c0-0.3,1.4-0.1,6-1.6c1.7-0.5,1.6-1.9-2-0.7c-0.7,0.2-1.3,0.2-1.9,0.3
					c-1.1,0.2-2,0.3-2,0.3c0-0.1-0.2-0.2,0.4-0.4c0.7-0.2,2.4-0.4,3.4-0.9c0.6-0.3,1.8-0.7,1.8-0.7s1.9-1,1.9-1.1
					c-0.1-0.7-1.7-0.4-2.5,0.1c-0.6,0-1.9,0.6-1.9,0.6s-2.9,0.4-3,0c-0.1-0.3,6.6-2.7,6.4-3.4c-0.2-0.8-3.7,0.6-3.8,0.7
					c-0.5,0.2-2,0.5-2,0.5s-5.2,0.9-5.3,0.5c0-0.4,0.8-1.1,1.1-1.2c0.3-0.2,0.6-0.4,0.9-0.6c0.3-0.2,0.4-0.5,0.2-0.9
					c-0.2-0.4-1.5,0-2,0.3c-1.4,0.7-4.6,3.5-5,3.7c-0.4,0.3-25.1-0.9-27.6-1.3l-0.1-12.8l-12.1,2.8l3.1,17.8c2,5.3,34.8-0.9,35.8-1
					c0,0,3.2,0.3,5.1,0.7c2,0.3,4-0.2,4.5-0.2c0.1,0,2.1,0.1,4.4-0.6C197.7,374.1,195.5,373.8,195.5,373.8z"/>
				<path class="st1" d="M194.9,359.4h12.4c0,0,6.8-0.4,8.2,2l-14.5,1.2C201.1,362.6,201.9,361,194.9,359.4z"/>
				<path class="st21" d="M161.7,344.9c0,0,0.1,5.5,5.9,6.9h27.3h12.4c0,0-28-0.5-29-2.1c-0.9-1.5-0.6-3.2-0.6-3.2L161.7,344.9z"/>
			</g>
		</g>
		<path class="st22" d="M146.9,330.1c0,0-3-0.3-5,4.3c-2.1,4.6,0.4,24,0.4,24l13.4-1.6C155.7,356.9,157.1,331.3,146.9,330.1z"/>
	</g>
	<polygon class="st6" points="504.4,156.6 495,173.1 493.1,163.3 474.8,170.1 472.2,157.3 491.7,155.7 489.4,146.4 	"/>
	<path class="st4" d="M243.2,237.1c16.3,0.9,29.1,11.1,28.4,22.7c-0.3,5.8-3.9,10.9-9.5,14.4l1.6,20.3l-9.2-16.9
		c-4.2,1.3-8.8,1.9-13.7,1.6c-16.3-0.9-29.1-11.1-28.4-22.7C213,244.8,226.8,236.2,243.2,237.1z"/>
	<path class="st4" d="M610.8,250.2c-15,0.8-26.7,10.4-26.1,21.4c0.3,5.5,3.6,10.3,8.8,13.6l-1.5,19.2l8.4-16
		c3.8,1.2,8.1,1.8,12.6,1.5c15-0.8,26.7-10.4,26.1-21.4C638.5,257.6,625.8,249.4,610.8,250.2z"/>
	<polygon class="st8" points="260.6,174 243.8,175 246.5,184.9 225.8,190.3 250.7,189.9 248.7,178.7 266.4,179.8 	"/>
	<g>
		<path class="st8" d="M251,255.7c-0.1,5.3-4.4,9.6-9.8,9.6c-5.3-0.1-9.6-4.4-9.6-9.8c0.1-5.3,4.4-9.6,9.8-9.6
			C246.8,246,251.1,250.4,251,255.7z"/>
		<g>
			<path class="st25" d="M238.1,262.3c0.2-0.4,0.3-1,0.6-1.4c1.3-2.8,4.1-4.6,6.3-3.9c1.2,0.4,2.3,1.2,3.1,1.4
				c0.4,0.1,0.7-0.5,0.3-0.7c-0.5-0.3-1.2-0.6-1.8-0.9c-1.5-0.7-2.9-1.3-5.2,0.1c-1,0.6-1.8,1.3-2.5,2.2c-0.6,0.8-1.3,2.2-1.2,3.1
				C237.6,262.4,237.9,262.6,238.1,262.3L238.1,262.3z"/>
		</g>
	</g>
	<g>
		<path class="st8" d="M621.2,271.6c-1.5,5.1-6.8,8.1-12,6.6c-5.1-1.5-8.1-6.9-6.6-12c1.5-5.1,6.8-8.1,12-6.6
			C619.7,261.1,622.7,266.5,621.2,271.6z"/>
		<path class="st4" d="M609.6,267.2c0,1.5-0.5,2.7-1.2,2.7s-1.2-1.2-1.2-2.7c0-1.5,0.5-2.7,1.2-2.7S609.6,265.8,609.6,267.2z"/>
		<path class="st4" d="M616.1,267.2c0,1.5-0.5,2.7-1.2,2.7c-0.6,0-1.2-1.2-1.2-2.7c0-1.5,0.5-2.7,1.2-2.7
			C615.6,264.6,616.1,265.8,616.1,267.2z"/>
	</g>
	<g>
		<path class="st5" d="M589.9,133.4c-0.1-0.1-0.3-0.2-0.5-0.1c-0.9,0.2-2.5-0.1-3.3-0.4l-0.9-4.3c0.6-0.6,2-1.5,2.9-1.6
			c0.2,0,0.3-0.2,0.4-0.3l1.1-3.3c0.1-0.2,0-0.4-0.1-0.5c-0.7-0.6-1.1-2.2-1.3-3l3.3-2.9c0.8,0.3,2.3,0.9,2.9,1.7
			c0.1,0.1,0.3,0.2,0.5,0.2l3.4-0.7c0.2,0,0.3-0.2,0.4-0.4c0.2-0.9,1.3-2.1,2-2.6l4.1,1.4c0.2,0.8,0.3,2.5,0,3.3
			c-0.1,0.2,0,0.4,0.1,0.5l2.3,2.6c0.1,0.1,0.3,0.2,0.5,0.1c0.9-0.2,2.5,0.1,3.3,0.4l0.9,4.3c-0.6,0.6-2,1.5-2.9,1.6
			c-0.2,0-0.3,0.2-0.4,0.3l-1.1,3.3c-0.1,0.2,0,0.4,0.1,0.5c0.7,0.6,1.1,2.2,1.3,3l-3.3,2.9c-0.8-0.3-2.3-0.9-2.9-1.7
			c-0.1-0.1-0.3-0.2-0.5-0.2l-3.4,0.7c-0.2,0-0.3,0.2-0.4,0.4c-0.2,0.9-1.3,2.1-2,2.6l-4.1-1.4c-0.2-0.8-0.3-2.5,0-3.3
			c0.1-0.2,0-0.4-0.1-0.5L589.9,133.4z M599.3,132.4c2.3-0.5,3.8-2.7,3.4-5.1c-0.5-2.3-2.7-3.8-5.1-3.4s-3.8,2.7-3.4,5.1
			C594.7,131.3,597,132.8,599.3,132.4z M599.8,135.1c3.8-0.8,6.3-4.5,5.5-8.3c-0.8-3.8-4.5-6.3-8.3-5.5c-3.8,0.8-6.3,4.5-5.5,8.3
			C592.3,133.4,596,135.8,599.8,135.1z"/>
		<path class="st6" d="M617.7,148.7c0-0.1,0.2-0.3,0.3-0.3l2.7-0.5c0.1,0,0.3,0,0.4,0.1c0.4,0.6,1.6,1.1,2.3,1.3l2.6-2.3
			c-0.1-0.7-0.5-1.9-1-2.4c-0.1-0.1-0.1-0.3-0.1-0.4l0.9-2.6c0-0.1,0.2-0.2,0.3-0.3c0.7-0.1,1.8-0.9,2.3-1.3l-0.7-3.4
			c-0.6-0.2-1.9-0.5-2.6-0.3c-0.1,0-0.3,0-0.4-0.1l-1.8-2c-0.1-0.1-0.1-0.3-0.1-0.4c0.3-0.7,0.2-2,0-2.6l-3.3-1.1
			c-0.5,0.4-1.4,1.4-1.6,2.1c0,0.1-0.2,0.3-0.3,0.3l-2.7,0.5c-0.1,0-0.3,0-0.4-0.1c-0.4-0.6-1.6-1.1-2.3-1.3l-2.6,2.3
			c0.1,0.7,0.5,1.9,1,2.4c0.1,0.1,0.1,0.3,0.1,0.4l-0.9,2.6c0,0.1-0.2,0.2-0.3,0.3c-0.7,0.1-1.8,0.9-2.3,1.3l0.7,3.4
			c0.6,0.2,1.9,0.5,2.6,0.3c0.1,0,0.3,0,0.4,0.1l1.8,2c0.1,0.1,0.1,0.3,0.1,0.4c-0.3,0.7-0.2,2,0,2.6l3.3,1.1
			C616.6,150.4,617.5,149.4,617.7,148.7z M618.6,144.7c-2.3,0.5-4.5-1-5-3.3c-0.5-2.3,1-4.5,3.3-5c2.3-0.5,4.5,1,5,3.3
			C622.4,142,620.9,144.2,618.6,144.7z"/>
	</g>
	<g>
		<g>
			<path class="st6" d="M157.7,269.8c-1-1.5-1.5-3.9-0.9-5.9c1-3.4,4.8-5.2,4-8.8c-0.2-0.9-0.7-1.6-1.3-2c-1.7-1.1-4.2-0.1-5.9,1
				c-1.1,0.7-2.1,1.6-3,2.8l-1.3-6.4c2-1.8,4.6-3,7.2-3.5c5.4-1.1,9.8,0.4,10.9,5.8c1,4.9-2.1,7.5-4,10.2c-1.1,1.5-1.2,2.6-1,3.8
				c0.1,0.6,0.5,1.4,0.9,1.8L157.7,269.8z M162.7,278.2c-5.2,1.1-6.7-6-1.4-7C166.4,270.1,167.9,277.1,162.7,278.2z"/>
		</g>
	</g>
	<g>
		<path class="st8" d="M533.3,216c-7.7-5.1-9.8-15.6-4.7-23.3c5.1-7.7,15.6-9.8,23.3-4.7c7.7,5.1,9.8,15.6,4.7,23.3
			C551.5,219,541,221.1,533.3,216z"/>
		<path class="st8" d="M533.5,215.7c-7.5-5-9.6-15.1-4.6-22.7c5-7.5,15.1-9.6,22.7-4.6c7.5,5,9.6,15.1,4.6,22.7
			C551.2,218.6,541.1,220.6,533.5,215.7z"/>
		<path class="st26" d="M553.7,209.5c-4.1,6.1-12.4,7.8-18.5,3.8c-6.1-4.1-7.8-12.4-3.8-18.5c4.1-6.1,12.4-7.8,18.5-3.8
			C556.1,195,557.7,203.3,553.7,209.5z"/>
		<path class="st26" d="M535.6,212.6c-5.8-3.9-7.4-11.7-3.6-17.5c3.9-5.8,11.7-7.4,17.5-3.6c5.8,3.9,7.4,11.7,3.6,17.5
			C549.3,214.8,541.4,216.4,535.6,212.6z"/>
		<g>
			<path class="st8" d="M533.8,195.4l-1.9-1.3c-0.3-0.2-0.7-0.1-0.9,0.2c-0.2,0.3-0.1,0.7,0.2,0.9l1.9,1.3c0.3,0.2,0.7,0.1,0.9-0.2
				C534.2,196,534.1,195.6,533.8,195.4z"/>
			<path class="st8" d="M536.9,210.6c-0.3-0.2-0.7-0.1-0.9,0.2l-1.3,1.9c-0.2,0.3-0.1,0.7,0.2,0.9c0.3,0.2,0.7,0.1,0.9-0.2l1.3-1.9
				C537.3,211.2,537.2,210.8,536.9,210.6z"/>
			<path class="st8" d="M554,208.8l-1.9-1.3c-0.3-0.2-0.7-0.1-0.9,0.2c-0.2,0.3-0.1,0.7,0.2,0.9l1.9,1.3c0.3,0.2,0.7,0.1,0.9-0.2
				C554.4,209.4,554.3,209,554,208.8z"/>
			<path class="st8" d="M550.3,190.5c-0.3-0.2-0.7-0.1-0.9,0.2l-1.3,1.9c-0.2,0.3-0.1,0.7,0.2,0.9c0.3,0.2,0.7,0.1,0.9-0.2l1.3-1.9
				C550.6,191.1,550.6,190.7,550.3,190.5z"/>
		</g>
		<g>
			<path class="st8" d="M557.6,191.2l2.3-1.3c0.2-0.1,0.4,0,0.5,0.1l1.5,2.6c0.1,0.2,0,0.4-0.1,0.5l-2.3,1.3c-0.2,0.1-0.4,0-0.5-0.1
				l-1.5-2.6C557.3,191.6,557.4,191.3,557.6,191.2z"/>
		</g>
		<g>
			<path class="st8" d="M546.8,184.1l0.3-2.6c0-0.2-0.1-0.4-0.3-0.4l-3-0.4c-0.2,0-0.4,0.1-0.4,0.3l-0.3,2.6c0,0.2,0.1,0.4,0.3,0.4
				l3,0.4C546.6,184.5,546.8,184.4,546.8,184.1z"/>
		</g>
		<g>
			<path class="st8" d="M552.2,184.4c-0.2-0.1-0.2-0.4-0.1-0.5l1.1-1.6c0.1-0.2,0.4-0.2,0.5-0.1l3.3,2.2c0.2,0.1,0.2,0.4,0.1,0.5
				l-1.1,1.6c-0.1,0.2-0.4,0.2-0.5,0.1L552.2,184.4z"/>
			<path class="st8" d="M552.2,185.6c-1.1-1.4-1.2-3.4-0.2-4.9c1.3-1.9,3.9-2.5,5.8-1.2c1.9,1.3,2.5,3.9,1.2,5.8
				c-1,1.5-2.9,2.2-4.6,1.7l-0.6,0.9c2.2,0.7,4.7,0,6-2c1.6-2.4,0.9-5.6-1.5-7.2c-2.4-1.6-5.6-0.9-7.2,1.5c-1.3,2-1.1,4.6,0.5,6.3
				L552.2,185.6z"/>
			<path class="st8" d="M552,187.8c0.4,0.3,0.7,0.5,1.1,0.8l1.5-2.3l-1.8-1.2l-1.5,2.3C551.6,187.5,551.8,187.6,552,187.8z"/>
		</g>
		<g>
			<path class="st8" d="M543.6,202.7c-0.4,0.6-1.1,0.7-1.7,0.3c-0.6-0.4-0.7-1.1-0.3-1.7c0.4-0.6,1.1-0.7,1.7-0.3
				C543.8,201.4,544,202.1,543.6,202.7z"/>
			<path class="st8" d="M551.7,197.5l-8.9,4.9c-0.2,0.1-0.5,0-0.6-0.2c-0.1-0.2,0-0.5,0.2-0.6C542.4,201.6,542,201.8,551.7,197.5z"
				/>
			<path class="st8" d="M543.4,212.2l-1.2-10.1c0-0.3,0.1-0.5,0.4-0.5c0.3,0,0.5,0.1,0.5,0.4C543,202,543,201.6,543.4,212.2z"/>
			<path class="st8" d="M543,202.3c-0.2,0.2-0.5,0.3-0.7,0.1c-0.2-0.2-0.3-0.5-0.1-0.7c0.2-0.2,0.5-0.3,0.7-0.1
				C543.1,201.8,543.2,202.1,543,202.3z"/>
		</g>
	</g>
	<g>
		<path class="st6" d="M338,132.9c-1.4,0.3-2.6-0.7-3-2.2c-0.7-2.7,1.9-4,3.6-2.9C340.3,129.1,340.2,132.3,338,132.9z M336.7,123.6
			c0.1,0.5-0.2,0.8-0.8,1c-0.6,0.2-1,0.2-1.2-0.4c-1.6-3.6-2.6-6-2.9-7c-2.4-10.1-2.8-10.9-2.4-11c0.6-0.1,1.5-0.2,2-0.3
			c0.6-0.1,1.4-0.5,2-0.7c0.3-0.1,0.4,0.6,0.9,2.7C336.3,115.6,336.3,119.6,336.7,123.6z"/>
	</g>
</g>
<text transform="matrix(1 0 0 1 218.6892 170.5718)" class="st6 st27 st28">p</text>
<text transform="matrix(1 0 0 1 226.4243 165.3558)" class="st6 st27 st28">a</text>
<text transform="matrix(1 0 0 1 237.0443 168.4176)" class="st6 st27 st28">p</text>
<text transform="matrix(1 0 0 1 247.0539 168.7081)" class="st6 st27 st28">i</text>
<text transform="matrix(1 0 0 1 254.9413 165.3557)" class="st6 st27 st28">e</text>
<text transform="matrix(1 0 0 1 264.5448 168.7083)" class="st6 st27 st28">r</text>
<text transform="matrix(1 0 0 1 150.8902 174.7462)" class="st22 st27 st28">N</text>
<text transform="matrix(1 0 0 1 161.4832 173.0325)" class="st22 st27 st28">o</text>
<text transform="matrix(1 0 0 1 169.5216 171.9961)" class="st22 st27 st28">n</text>
<text transform="matrix(1 0 0 1 191.6582 159.7604)" class="st8 st27 st28">a</text>
<text transform="matrix(1 0 0 1 201.2515 159.7604)" class="st8 st27 st28">u</text>
<text transform="matrix(1 0 0 1 178.2826 171.9964)" class="st22 st27 st28">!</text>
</svg>
