<?xml version="1.0" encoding="utf-8"?>
<!-- Generator: Adobe Illustrator 24.0.2, SVG Export Plug-In . SVG Version: 6.00 Build 0)  -->
<svg version="1.1" id="Calque_1" xmlns="http://www.w3.org/2000/svg" xmlns:xlink="http://www.w3.org/1999/xlink" x="0px" y="0px"
	 viewBox="0 0 33 59" style="enable-background:new 0 0 33 59;" xml:space="preserve">
<style type="text/css">
	.st0{fill:url(#SVGID_1_);}
	.st1{fill:url(#SVGID_2_);}
	.st2{fill:url(#SVGID_3_);}
	.st3{fill:url(#SVGID_4_);}
	.st4{fill:url(#SVGID_5_);}
	.st5{fill:url(#SVGID_6_);}
	.st6{fill:url(#SVGID_7_);}
	.st7{fill:url(#SVGID_8_);}
	.st8{fill:url(#SVGID_9_);}
	.st9{fill:url(#SVGID_10_);}
	.st10{fill:url(#SVGID_11_);}
	.st11{fill:url(#SVGID_12_);}
	.st12{fill:url(#SVGID_13_);}
	.st13{fill:url(#SVGID_14_);}
	.st14{fill:url(#SVGID_15_);}
	.st15{fill:url(#SVGID_16_);}
	.st16{fill:url(#SVGID_17_);}
	.st17{fill:url(#SVGID_18_);}
	.st18{fill:url(#SVGID_19_);}
	.st19{fill:url(#SVGID_20_);}
	.st20{fill:url(#SVGID_21_);}
	.st21{fill:url(#SVGID_22_);}
	.st22{fill:url(#SVGID_23_);}
	.st23{fill:url(#SVGID_24_);}
	.st24{fill:url(#SVGID_25_);}
	.st25{fill:url(#SVGID_26_);}
	.st26{fill:url(#SVGID_27_);}
	.st27{fill:url(#SVGID_28_);}
	.st28{fill:url(#SVGID_29_);}
	.st29{fill:url(#SVGID_30_);}
	.st30{fill:url(#SVGID_31_);}
	.st31{fill:url(#SVGID_32_);}
	.st32{fill:url(#SVGID_33_);}
	.st33{fill:url(#SVGID_34_);}
	.st34{fill:url(#SVGID_35_);}
	.st35{fill:url(#SVGID_36_);}
	.st36{fill:url(#SVGID_37_);}
	.st37{fill:url(#SVGID_38_);}
	.st38{fill:url(#SVGID_39_);}
	.st39{fill:url(#SVGID_40_);}
	.st40{fill:url(#SVGID_41_);}
	.st41{fill:url(#SVGID_42_);}
	.st42{fill:url(#SVGID_43_);}
	.st43{fill:url(#SVGID_44_);}
	.st44{fill:url(#SVGID_45_);}
	.st45{fill:url(#SVGID_46_);}
	.st46{fill:url(#SVGID_47_);}
	.st47{fill:url(#SVGID_48_);}
	.st48{fill:url(#SVGID_49_);}
	.st49{fill:url(#SVGID_50_);}
	.st50{fill:url(#SVGID_51_);}
	.st51{fill:url(#SVGID_52_);}
	.st52{fill:url(#SVGID_53_);}
	.st53{fill:url(#SVGID_54_);}
	.st54{fill:#EFC300;}
</style>
<title>Pot4</title>
<g>
	<g id="background_1_">
	</g>
	<g id="objects_1_">
		<g>
			<g>
				<g>
					
						<linearGradient id="SVGID_1_" gradientUnits="userSpaceOnUse" x1="313.324" y1="-324.513" x2="315.9247" y2="-324.513" gradientTransform="matrix(1 0 0 -1 -289.5 -307.5)">
						<stop  offset="0" style="stop-color:#450077"/>
						<stop  offset="0.1464" style="stop-color:#5B1493"/>
						<stop  offset="0.328" style="stop-color:#732BB2"/>
						<stop  offset="0.524" style="stop-color:#450077"/>
						<stop  offset="0.7298" style="stop-color:#732BB2"/>
						<stop  offset="1" style="stop-color:#450077"/>
					</linearGradient>
					<path class="st0" d="M25.6,16.5c0.7,0.7,0.8,1.7,0.8,1.7s-1,0-1.8-0.7c-0.7-0.7-0.8-1.7-0.8-1.7S24.9,15.9,25.6,16.5z"/>
					<g>
						<g>
							
								<linearGradient id="SVGID_2_" gradientUnits="userSpaceOnUse" x1="309.3816" y1="-348.3799" x2="311.6297" y2="-348.3799" gradientTransform="matrix(1 0 0 -1 -289.5 -307.5)">
								<stop  offset="0" style="stop-color:#450077"/>
								<stop  offset="0.1464" style="stop-color:#5B1493"/>
								<stop  offset="0.328" style="stop-color:#732BB2"/>
								<stop  offset="0.524" style="stop-color:#450077"/>
								<stop  offset="0.7298" style="stop-color:#732BB2"/>
								<stop  offset="1" style="stop-color:#450077"/>
							</linearGradient>
							<path class="st1" d="M20.5,40.6c-0.6,0.8-0.7,1.7-0.7,1.7c0,0,1.3-0.4,1.9-1.2c0.6-0.9,0.3-1.8,0.3-1.8
								C22.1,39.4,21.2,39.9,20.5,40.6z"/>
							
								<linearGradient id="SVGID_3_" gradientUnits="userSpaceOnUse" x1="309.374" y1="-350.2549" x2="313.3482" y2="-350.2549" gradientTransform="matrix(1 0 0 -1 -289.5 -307.5)">
								<stop  offset="0" style="stop-color:#450077"/>
								<stop  offset="0.1464" style="stop-color:#5B1493"/>
								<stop  offset="0.328" style="stop-color:#732BB2"/>
								<stop  offset="0.524" style="stop-color:#450077"/>
								<stop  offset="0.7298" style="stop-color:#732BB2"/>
								<stop  offset="1" style="stop-color:#450077"/>
							</linearGradient>
							<path class="st2" d="M21.4,43.4c-1.1-0.2-1.6-1.1-1.6-1c0,0,1.2-0.4,2.3-0.2c1.1,0.1,1.7,0.8,1.7,0.8
								C23.9,42.9,22.6,43.6,21.4,43.4z"/>
						</g>
						<g>
							
								<linearGradient id="SVGID_4_" gradientUnits="userSpaceOnUse" x1="311.9864" y1="-347.3096" x2="313.7038" y2="-347.3096" gradientTransform="matrix(1 0 0 -1 -289.5 -307.5)">
								<stop  offset="0" style="stop-color:#450077"/>
								<stop  offset="0.1464" style="stop-color:#5B1493"/>
								<stop  offset="0.328" style="stop-color:#732BB2"/>
								<stop  offset="0.524" style="stop-color:#450077"/>
								<stop  offset="0.7298" style="stop-color:#732BB2"/>
								<stop  offset="1" style="stop-color:#450077"/>
							</linearGradient>
							<path class="st3" d="M22.8,39.7c-0.4,0.9-0.3,1.8-0.3,1.8c0,0,1.1-0.6,1.5-1.5c0.4-0.9-0.1-1.8,0-1.8
								C24,38.2,23.2,38.8,22.8,39.7z"/>
							
								<linearGradient id="SVGID_5_" gradientUnits="userSpaceOnUse" x1="312.0017" y1="-348.9733" x2="315.8636" y2="-348.9733" gradientTransform="matrix(1 0 0 -1 -289.5 -307.5)">
								<stop  offset="0" style="stop-color:#450077"/>
								<stop  offset="0.1464" style="stop-color:#5B1493"/>
								<stop  offset="0.328" style="stop-color:#732BB2"/>
								<stop  offset="0.524" style="stop-color:#450077"/>
								<stop  offset="0.7298" style="stop-color:#732BB2"/>
								<stop  offset="1" style="stop-color:#450077"/>
							</linearGradient>
							<path class="st4" d="M24.2,42.2c-1.1,0-1.7-0.8-1.7-0.8c0,0,1.1-0.5,2.1-0.6c1-0.1,1.8,0.5,1.8,0.5
								C26.4,41.3,25.3,42.2,24.2,42.2z"/>
						</g>
						<g>
							
								<linearGradient id="SVGID_6_" gradientUnits="userSpaceOnUse" x1="314.1404" y1="-345.8777" x2="315.5329" y2="-345.8777" gradientTransform="matrix(1 0 0 -1 -289.5 -307.5)">
								<stop  offset="0" style="stop-color:#450077"/>
								<stop  offset="0.1464" style="stop-color:#5B1493"/>
								<stop  offset="0.328" style="stop-color:#732BB2"/>
								<stop  offset="0.524" style="stop-color:#450077"/>
								<stop  offset="0.7298" style="stop-color:#732BB2"/>
								<stop  offset="1" style="stop-color:#450077"/>
							</linearGradient>
							<path class="st5" d="M24.7,38.3c-0.2,0.9,0.1,1.8,0.1,1.8c0,0,1-0.7,1.2-1.7c0.2-1-0.4-1.7-0.4-1.7
								C25.6,36.7,25,37.4,24.7,38.3z"/>
							
								<linearGradient id="SVGID_7_" gradientUnits="userSpaceOnUse" x1="314.2956" y1="-347.2805" x2="317.9777" y2="-347.2805" gradientTransform="matrix(1 0 0 -1 -289.5 -307.5)">
								<stop  offset="0" style="stop-color:#450077"/>
								<stop  offset="0.1464" style="stop-color:#5B1493"/>
								<stop  offset="0.328" style="stop-color:#732BB2"/>
								<stop  offset="0.524" style="stop-color:#450077"/>
								<stop  offset="0.7298" style="stop-color:#732BB2"/>
								<stop  offset="1" style="stop-color:#450077"/>
							</linearGradient>
							<path class="st6" d="M26.5,40.5c-1.1,0.2-1.7-0.5-1.7-0.4c0,0,0.9-0.7,1.9-0.9c1-0.2,1.8,0.2,1.8,0.2
								C28.5,39.3,27.6,40.3,26.5,40.5z"/>
						</g>
						<g>
							
								<linearGradient id="SVGID_8_" gradientUnits="userSpaceOnUse" x1="315.8478" y1="-344.1609" x2="317.0878" y2="-344.1609" gradientTransform="matrix(1 0 0 -1 -289.5 -307.5)">
								<stop  offset="0" style="stop-color:#450077"/>
								<stop  offset="0.1464" style="stop-color:#5B1493"/>
								<stop  offset="0.328" style="stop-color:#732BB2"/>
								<stop  offset="0.524" style="stop-color:#450077"/>
								<stop  offset="0.7298" style="stop-color:#732BB2"/>
								<stop  offset="1" style="stop-color:#450077"/>
							</linearGradient>
							<path class="st7" d="M26.4,36.7c-0.1,0.9,0.4,1.7,0.4,1.7c0,0,0.8-0.9,0.8-1.9c0-1-0.7-1.6-0.7-1.6
								C26.9,34.9,26.4,35.8,26.4,36.7z"/>
							
								<linearGradient id="SVGID_9_" gradientUnits="userSpaceOnUse" x1="316.2367" y1="-345.2504" x2="319.6634" y2="-345.2504" gradientTransform="matrix(1 0 0 -1 -289.5 -307.5)">
								<stop  offset="0" style="stop-color:#450077"/>
								<stop  offset="0.1464" style="stop-color:#5B1493"/>
								<stop  offset="0.328" style="stop-color:#732BB2"/>
								<stop  offset="0.524" style="stop-color:#450077"/>
								<stop  offset="0.7298" style="stop-color:#732BB2"/>
								<stop  offset="1" style="stop-color:#450077"/>
							</linearGradient>
							<path class="st8" d="M28.5,38.5c-1,0.4-1.8-0.1-1.8-0.1c0,0,0.8-0.8,1.7-1.2c0.9-0.4,1.8-0.2,1.8-0.1
								C30.2,37,29.5,38.1,28.5,38.5z"/>
						</g>
						<g>
							
								<linearGradient id="SVGID_10_" gradientUnits="userSpaceOnUse" x1="317.1289" y1="-342.1958" x2="318.3429" y2="-342.1958" gradientTransform="matrix(1 0 0 -1 -289.5 -307.5)">
								<stop  offset="0" style="stop-color:#450077"/>
								<stop  offset="0.1464" style="stop-color:#5B1493"/>
								<stop  offset="0.328" style="stop-color:#732BB2"/>
								<stop  offset="0.524" style="stop-color:#450077"/>
								<stop  offset="0.7298" style="stop-color:#732BB2"/>
								<stop  offset="1" style="stop-color:#450077"/>
							</linearGradient>
							<path class="st9" d="M27.6,34.8c0.1,0.9,0.7,1.6,0.7,1.6c0,0,0.6-1,0.5-2c-0.1-1-0.9-1.4-0.9-1.4
								C27.9,33,27.5,33.9,27.6,34.8z"/>
							
								<linearGradient id="SVGID_11_" gradientUnits="userSpaceOnUse" x1="317.8094" y1="-342.9477" x2="320.9146" y2="-342.9477" gradientTransform="matrix(1 0 0 -1 -289.5 -307.5)">
								<stop  offset="0" style="stop-color:#450077"/>
								<stop  offset="0.1464" style="stop-color:#5B1493"/>
								<stop  offset="0.328" style="stop-color:#732BB2"/>
								<stop  offset="0.524" style="stop-color:#450077"/>
								<stop  offset="0.7298" style="stop-color:#732BB2"/>
								<stop  offset="1" style="stop-color:#450077"/>
							</linearGradient>
							<path class="st10" d="M30,36.2c-0.9,0.5-1.7,0.2-1.7,0.2c0,0,0.6-1,1.4-1.5c0.8-0.5,1.7-0.5,1.7-0.5
								C31.4,34.4,31,35.6,30,36.2z"/>
						</g>
						<g>
							
								<linearGradient id="SVGID_12_" gradientUnits="userSpaceOnUse" x1="317.9647" y1="-340.0552" x2="319.2805" y2="-340.0552" gradientTransform="matrix(1 0 0 -1 -289.5 -307.5)">
								<stop  offset="0" style="stop-color:#450077"/>
								<stop  offset="0.1464" style="stop-color:#5B1493"/>
								<stop  offset="0.328" style="stop-color:#732BB2"/>
								<stop  offset="0.524" style="stop-color:#450077"/>
								<stop  offset="0.7298" style="stop-color:#732BB2"/>
								<stop  offset="1" style="stop-color:#450077"/>
							</linearGradient>
							<path class="st11" d="M28.6,32.7c0.2,0.9,0.9,1.4,0.9,1.4c0,0,0.5-1.1,0.1-2c-0.3-0.9-1.1-1.2-1.1-1.2
								C28.6,30.9,28.3,31.9,28.6,32.7z"/>
							
								<linearGradient id="SVGID_13_" gradientUnits="userSpaceOnUse" x1="319.0002" y1="-340.4392" x2="321.7112" y2="-340.4392" gradientTransform="matrix(1 0 0 -1 -289.5 -307.5)">
								<stop  offset="0" style="stop-color:#450077"/>
								<stop  offset="0.1464" style="stop-color:#5B1493"/>
								<stop  offset="0.328" style="stop-color:#732BB2"/>
								<stop  offset="0.524" style="stop-color:#450077"/>
								<stop  offset="0.7298" style="stop-color:#732BB2"/>
								<stop  offset="1" style="stop-color:#450077"/>
							</linearGradient>
							<path class="st12" d="M31.2,33.7c-0.8,0.7-1.7,0.5-1.7,0.5c0,0,0.4-1,1.1-1.7c0.7-0.7,1.6-0.8,1.6-0.7
								C32.2,31.7,32,33,31.2,33.7z"/>
						</g>
						<g>
							
								<linearGradient id="SVGID_14_" gradientUnits="userSpaceOnUse" x1="318.3194" y1="-337.7869" x2="319.9031" y2="-337.7869" gradientTransform="matrix(1 0 0 -1 -289.5 -307.5)">
								<stop  offset="0" style="stop-color:#450077"/>
								<stop  offset="0.1464" style="stop-color:#5B1493"/>
								<stop  offset="0.328" style="stop-color:#732BB2"/>
								<stop  offset="0.524" style="stop-color:#450077"/>
								<stop  offset="0.7298" style="stop-color:#732BB2"/>
								<stop  offset="1" style="stop-color:#450077"/>
							</linearGradient>
							<path class="st13" d="M29.2,30.6c0.4,0.8,1.2,1.2,1.2,1.2c0,0,0.3-1.1-0.2-2c-0.5-0.8-1.3-1-1.3-1
								C28.8,28.8,28.8,29.8,29.2,30.6z"/>
							
								<linearGradient id="SVGID_15_" gradientUnits="userSpaceOnUse" x1="319.7926" y1="-337.838" x2="322.0402" y2="-337.838" gradientTransform="matrix(1 0 0 -1 -289.5 -307.5)">
								<stop  offset="0" style="stop-color:#450077"/>
								<stop  offset="0.1464" style="stop-color:#5B1493"/>
								<stop  offset="0.328" style="stop-color:#732BB2"/>
								<stop  offset="0.524" style="stop-color:#450077"/>
								<stop  offset="0.7298" style="stop-color:#732BB2"/>
								<stop  offset="1" style="stop-color:#450077"/>
							</linearGradient>
							<path class="st14" d="M31.8,31c-0.7,0.8-1.6,0.8-1.5,0.8c0,0,0.2-1.1,0.8-1.9c0.6-0.8,1.4-1,1.4-1
								C32.5,28.9,32.5,30.2,31.8,31z"/>
						</g>
						<g>
							
								<linearGradient id="SVGID_16_" gradientUnits="userSpaceOnUse" x1="318.2259" y1="-335.4675" x2="320.2143" y2="-335.4675" gradientTransform="matrix(1 0 0 -1 -289.5 -307.5)">
								<stop  offset="0" style="stop-color:#450077"/>
								<stop  offset="0.1464" style="stop-color:#5B1493"/>
								<stop  offset="0.328" style="stop-color:#732BB2"/>
								<stop  offset="0.524" style="stop-color:#450077"/>
								<stop  offset="0.7298" style="stop-color:#732BB2"/>
								<stop  offset="1" style="stop-color:#450077"/>
							</linearGradient>
							<path class="st15" d="M29.4,28.3c0.5,0.7,1.3,1,1.3,1c0,0,0.1-1.2-0.5-1.9c-0.6-0.8-1.5-0.8-1.5-0.8
								C28.7,26.6,28.9,27.6,29.4,28.3z"/>
							
								<linearGradient id="SVGID_17_" gradientUnits="userSpaceOnUse" x1="320.1746" y1="-335.1679" x2="321.9222" y2="-335.1679" gradientTransform="matrix(1 0 0 -1 -289.5 -307.5)">
								<stop  offset="0" style="stop-color:#450077"/>
								<stop  offset="0.1464" style="stop-color:#5B1493"/>
								<stop  offset="0.328" style="stop-color:#732BB2"/>
								<stop  offset="0.524" style="stop-color:#450077"/>
								<stop  offset="0.7298" style="stop-color:#732BB2"/>
								<stop  offset="1" style="stop-color:#450077"/>
							</linearGradient>
							<path class="st16" d="M32.1,28.3c-0.5,0.9-1.4,1-1.4,1c0,0,0.1-1.1,0.5-2c0.4-0.9,1.2-1.3,1.2-1.3
								C32.4,26,32.6,27.4,32.1,28.3z"/>
						</g>
						<g>
							
								<linearGradient id="SVGID_18_" gradientUnits="userSpaceOnUse" x1="317.7437" y1="-333.1235" x2="320.1621" y2="-333.1235" gradientTransform="matrix(1 0 0 -1 -289.5 -307.5)">
								<stop  offset="0" style="stop-color:#450077"/>
								<stop  offset="0.1464" style="stop-color:#5B1493"/>
								<stop  offset="0.328" style="stop-color:#732BB2"/>
								<stop  offset="0.524" style="stop-color:#450077"/>
								<stop  offset="0.7298" style="stop-color:#732BB2"/>
								<stop  offset="1" style="stop-color:#450077"/>
							</linearGradient>
							<path class="st17" d="M29.2,26c0.6,0.6,1.5,0.8,1.5,0.8c0,0-0.1-1.2-0.9-1.8c-0.7-0.6-1.6-0.5-1.6-0.5
								C28.3,24.5,28.5,25.4,29.2,26z"/>
							
								<linearGradient id="SVGID_19_" gradientUnits="userSpaceOnUse" x1="320.093" y1="-332.5124" x2="321.4442" y2="-332.5124" gradientTransform="matrix(1 0 0 -1 -289.5 -307.5)">
								<stop  offset="0" style="stop-color:#450077"/>
								<stop  offset="0.1464" style="stop-color:#5B1493"/>
								<stop  offset="0.328" style="stop-color:#732BB2"/>
								<stop  offset="0.524" style="stop-color:#450077"/>
								<stop  offset="0.7298" style="stop-color:#732BB2"/>
								<stop  offset="1" style="stop-color:#450077"/>
							</linearGradient>
							<path class="st18" d="M31.8,25.5c-0.3,1-1.2,1.3-1.2,1.3c0,0-0.1-1.1,0.1-2.1c0.3-1,1-1.5,1-1.5
								C31.7,23.2,32.2,24.5,31.8,25.5z"/>
						</g>
						<g>
							
								<linearGradient id="SVGID_20_" gradientUnits="userSpaceOnUse" x1="316.8671" y1="-330.8071" x2="319.6743" y2="-330.8071" gradientTransform="matrix(1 0 0 -1 -289.5 -307.5)">
								<stop  offset="0" style="stop-color:#450077"/>
								<stop  offset="0.1464" style="stop-color:#5B1493"/>
								<stop  offset="0.328" style="stop-color:#732BB2"/>
								<stop  offset="0.524" style="stop-color:#450077"/>
								<stop  offset="0.7298" style="stop-color:#732BB2"/>
								<stop  offset="1" style="stop-color:#450077"/>
							</linearGradient>
							<path class="st19" d="M28.6,23.8c0.7,0.5,1.6,0.5,1.6,0.5c0,0-0.3-1.1-1.2-1.7c-0.8-0.5-1.6-0.2-1.6-0.2
								C27.4,22.4,27.8,23.3,28.6,23.8z"/>
							
								<linearGradient id="SVGID_21_" gradientUnits="userSpaceOnUse" x1="319.3655" y1="-329.9299" x2="320.5869" y2="-329.9299" gradientTransform="matrix(1 0 0 -1 -289.5 -307.5)">
								<stop  offset="0" style="stop-color:#450077"/>
								<stop  offset="0.1464" style="stop-color:#5B1493"/>
								<stop  offset="0.328" style="stop-color:#732BB2"/>
								<stop  offset="0.524" style="stop-color:#450077"/>
								<stop  offset="0.7298" style="stop-color:#732BB2"/>
								<stop  offset="1" style="stop-color:#450077"/>
							</linearGradient>
							<path class="st20" d="M31.1,22.8c-0.1,1.1-0.9,1.5-0.9,1.5c0,0-0.3-1.1-0.3-2.1c0.1-1,0.7-1.7,0.7-1.7
								C30.5,20.5,31.2,21.8,31.1,22.8z"/>
						</g>
						<g>
							
								<linearGradient id="SVGID_22_" gradientUnits="userSpaceOnUse" x1="315.5823" y1="-328.6009" x2="318.7313" y2="-328.6009" gradientTransform="matrix(1 0 0 -1 -289.5 -307.5)">
								<stop  offset="0" style="stop-color:#450077"/>
								<stop  offset="0.1464" style="stop-color:#5B1493"/>
								<stop  offset="0.328" style="stop-color:#732BB2"/>
								<stop  offset="0.524" style="stop-color:#450077"/>
								<stop  offset="0.7298" style="stop-color:#732BB2"/>
								<stop  offset="1" style="stop-color:#450077"/>
							</linearGradient>
							<path class="st21" d="M27.6,21.7c0.8,0.4,1.7,0.2,1.7,0.2c0,0-0.6-1.1-1.5-1.5c-0.9-0.4-1.7,0.1-1.7,0.1
								C26.1,20.5,26.7,21.3,27.6,21.7z"/>
							
								<linearGradient id="SVGID_23_" gradientUnits="userSpaceOnUse" x1="317.9913" y1="-327.4789" x2="319.317" y2="-327.4789" gradientTransform="matrix(1 0 0 -1 -289.5 -307.5)">
								<stop  offset="0" style="stop-color:#450077"/>
								<stop  offset="0.1464" style="stop-color:#5B1493"/>
								<stop  offset="0.328" style="stop-color:#732BB2"/>
								<stop  offset="0.524" style="stop-color:#450077"/>
								<stop  offset="0.7298" style="stop-color:#732BB2"/>
								<stop  offset="1" style="stop-color:#450077"/>
							</linearGradient>
							<path class="st22" d="M29.8,20.2c0.1,1.1-0.6,1.7-0.6,1.7c0,0-0.5-1-0.7-2.1c-0.1-1,0.3-1.8,0.3-1.8
								C28.8,18,29.7,19.1,29.8,20.2z"/>
						</g>
						<g>
							
								<linearGradient id="SVGID_24_" gradientUnits="userSpaceOnUse" x1="313.8709" y1="-326.5805" x2="317.3192" y2="-326.5805" gradientTransform="matrix(1 0 0 -1 -289.5 -307.5)">
								<stop  offset="0" style="stop-color:#450077"/>
								<stop  offset="0.1464" style="stop-color:#5B1493"/>
								<stop  offset="0.328" style="stop-color:#732BB2"/>
								<stop  offset="0.524" style="stop-color:#450077"/>
								<stop  offset="0.7298" style="stop-color:#732BB2"/>
								<stop  offset="1" style="stop-color:#450077"/>
							</linearGradient>
							<path class="st23" d="M26.1,19.7c0.9,0.3,1.7-0.1,1.7-0.1c0,0-0.8-1-1.8-1.2c-1-0.2-1.7,0.3-1.7,0.3
								C24.4,18.7,25.2,19.5,26.1,19.7z"/>
							
								<linearGradient id="SVGID_25_" gradientUnits="userSpaceOnUse" x1="315.9601" y1="-325.2326" x2="317.6288" y2="-325.2326" gradientTransform="matrix(1 0 0 -1 -289.5 -307.5)">
								<stop  offset="0" style="stop-color:#450077"/>
								<stop  offset="0.1464" style="stop-color:#5B1493"/>
								<stop  offset="0.328" style="stop-color:#732BB2"/>
								<stop  offset="0.524" style="stop-color:#450077"/>
								<stop  offset="0.7298" style="stop-color:#732BB2"/>
								<stop  offset="1" style="stop-color:#450077"/>
							</linearGradient>
							<path class="st24" d="M28,17.9c0.3,1.1-0.3,1.8-0.2,1.8c0,0-0.8-0.9-1.1-2c-0.4-1-0.1-1.9-0.1-1.9
								C26.6,15.8,27.7,16.8,28,17.9z"/>
						</g>
					</g>
					<g>
						
							<linearGradient id="SVGID_26_" gradientUnits="userSpaceOnUse" x1="305.7264" y1="-337.6081" x2="320.2254" y2="-337.6081" gradientTransform="matrix(1 0 0 -1 -289.5 -307.5)">
							<stop  offset="0" style="stop-color:#450077"/>
							<stop  offset="0.1464" style="stop-color:#5B1493"/>
							<stop  offset="0.328" style="stop-color:#732BB2"/>
							<stop  offset="0.524" style="stop-color:#450077"/>
							<stop  offset="0.7298" style="stop-color:#732BB2"/>
							<stop  offset="1" style="stop-color:#450077"/>
						</linearGradient>
						<path class="st25" d="M16.2,42.7l0-0.2c1.7,0.2,3.3,0,4.9-0.5c1.6-0.5,3-1.3,4.3-2.4c2.7-2.2,4.4-5.3,4.9-8.9
							c0.4-2.9,0.2-5.4-0.6-7.6c-0.8-2.3-2.3-4.2-4.3-5.4l0.1-0.2c2.1,1.3,3.6,3.2,4.4,5.5c0.8,2.2,1,4.8,0.6,7.7
							c-0.5,3.6-2.2,6.7-4.9,9c-1.3,1.1-2.8,1.9-4.4,2.4C19.6,42.6,17.9,42.8,16.2,42.7z"/>
					</g>
				</g>
				<g>
					
						<linearGradient id="SVGID_27_" gradientUnits="userSpaceOnUse" x1="296.076" y1="-324.513" x2="298.6767" y2="-324.513" gradientTransform="matrix(1 0 0 -1 -289.5 -307.5)">
						<stop  offset="0" style="stop-color:#450077"/>
						<stop  offset="0.1464" style="stop-color:#5B1493"/>
						<stop  offset="0.328" style="stop-color:#732BB2"/>
						<stop  offset="0.524" style="stop-color:#450077"/>
						<stop  offset="0.7298" style="stop-color:#732BB2"/>
						<stop  offset="1" style="stop-color:#450077"/>
					</linearGradient>
					<path class="st26" d="M7.4,16.5c-0.7,0.7-0.8,1.7-0.8,1.7s1,0,1.8-0.7c0.7-0.7,0.8-1.7,0.8-1.7S8.1,15.9,7.4,16.5z"/>
					<g>
						<g>
							
								<linearGradient id="SVGID_28_" gradientUnits="userSpaceOnUse" x1="300.3665" y1="-348.3799" x2="302.6146" y2="-348.3799" gradientTransform="matrix(1 0 0 -1 -289.5 -307.5)">
								<stop  offset="0" style="stop-color:#450077"/>
								<stop  offset="0.1464" style="stop-color:#5B1493"/>
								<stop  offset="0.328" style="stop-color:#732BB2"/>
								<stop  offset="0.524" style="stop-color:#450077"/>
								<stop  offset="0.7298" style="stop-color:#732BB2"/>
								<stop  offset="1" style="stop-color:#450077"/>
							</linearGradient>
							<path class="st27" d="M12.5,40.6c0.6,0.8,0.7,1.7,0.7,1.7c0,0-1.3-0.4-1.9-1.2c-0.6-0.9-0.3-1.8-0.3-1.8
								C10.9,39.4,11.9,39.9,12.5,40.6z"/>
							
								<linearGradient id="SVGID_29_" gradientUnits="userSpaceOnUse" x1="298.6474" y1="-350.2549" x2="302.6216" y2="-350.2549" gradientTransform="matrix(1 0 0 -1 -289.5 -307.5)">
								<stop  offset="0" style="stop-color:#450077"/>
								<stop  offset="0.1464" style="stop-color:#5B1493"/>
								<stop  offset="0.328" style="stop-color:#732BB2"/>
								<stop  offset="0.524" style="stop-color:#450077"/>
								<stop  offset="0.7298" style="stop-color:#732BB2"/>
								<stop  offset="1" style="stop-color:#450077"/>
							</linearGradient>
							<path class="st28" d="M11.6,43.4c1.1-0.2,1.6-1.1,1.6-1c0,0-1.2-0.4-2.3-0.2c-1.1,0.1-1.7,0.8-1.7,0.8
								C9.1,42.9,10.4,43.6,11.6,43.4z"/>
						</g>
						<g>
							
								<linearGradient id="SVGID_30_" gradientUnits="userSpaceOnUse" x1="298.2944" y1="-347.3096" x2="300.0119" y2="-347.3096" gradientTransform="matrix(1 0 0 -1 -289.5 -307.5)">
								<stop  offset="0" style="stop-color:#450077"/>
								<stop  offset="0.1464" style="stop-color:#5B1493"/>
								<stop  offset="0.328" style="stop-color:#732BB2"/>
								<stop  offset="0.524" style="stop-color:#450077"/>
								<stop  offset="0.7298" style="stop-color:#732BB2"/>
								<stop  offset="1" style="stop-color:#450077"/>
							</linearGradient>
							<path class="st29" d="M10.2,39.7c0.4,0.9,0.3,1.8,0.3,1.8c0,0-1.1-0.6-1.5-1.5C8.6,39,9,38.2,9,38.2
								C9,38.2,9.8,38.8,10.2,39.7z"/>
							
								<linearGradient id="SVGID_31_" gradientUnits="userSpaceOnUse" x1="296.1343" y1="-348.9733" x2="299.9962" y2="-348.9733" gradientTransform="matrix(1 0 0 -1 -289.5 -307.5)">
								<stop  offset="0" style="stop-color:#450077"/>
								<stop  offset="0.1464" style="stop-color:#5B1493"/>
								<stop  offset="0.328" style="stop-color:#732BB2"/>
								<stop  offset="0.524" style="stop-color:#450077"/>
								<stop  offset="0.7298" style="stop-color:#732BB2"/>
								<stop  offset="1" style="stop-color:#450077"/>
							</linearGradient>
							<path class="st30" d="M8.8,42.2c1.1,0,1.7-0.8,1.7-0.8c0,0-1.1-0.5-2.1-0.6c-1-0.1-1.8,0.5-1.8,0.5
								C6.6,41.3,7.7,42.2,8.8,42.2z"/>
						</g>
						<g>
							
								<linearGradient id="SVGID_32_" gradientUnits="userSpaceOnUse" x1="296.4655" y1="-345.8777" x2="297.8581" y2="-345.8777" gradientTransform="matrix(1 0 0 -1 -289.5 -307.5)">
								<stop  offset="0" style="stop-color:#450077"/>
								<stop  offset="0.1464" style="stop-color:#5B1493"/>
								<stop  offset="0.328" style="stop-color:#732BB2"/>
								<stop  offset="0.524" style="stop-color:#450077"/>
								<stop  offset="0.7298" style="stop-color:#732BB2"/>
								<stop  offset="1" style="stop-color:#450077"/>
							</linearGradient>
							<path class="st31" d="M8.3,38.3c0.2,0.9-0.1,1.8-0.1,1.8c0,0-1-0.7-1.2-1.7c-0.2-1,0.4-1.7,0.4-1.7C7.4,36.7,8,37.4,8.3,38.3
								z"/>
							
								<linearGradient id="SVGID_33_" gradientUnits="userSpaceOnUse" x1="294.023" y1="-347.2805" x2="297.7051" y2="-347.2805" gradientTransform="matrix(1 0 0 -1 -289.5 -307.5)">
								<stop  offset="0" style="stop-color:#450077"/>
								<stop  offset="0.1464" style="stop-color:#5B1493"/>
								<stop  offset="0.328" style="stop-color:#732BB2"/>
								<stop  offset="0.524" style="stop-color:#450077"/>
								<stop  offset="0.7298" style="stop-color:#732BB2"/>
								<stop  offset="1" style="stop-color:#450077"/>
							</linearGradient>
							<path class="st32" d="M6.5,40.5C7.5,40.7,8.2,40,8.2,40c0,0-0.9-0.7-1.9-0.9c-1-0.2-1.8,0.2-1.8,0.2
								C4.5,39.3,5.4,40.3,6.5,40.5z"/>
						</g>
						<g>
							
								<linearGradient id="SVGID_34_" gradientUnits="userSpaceOnUse" x1="294.9105" y1="-344.1609" x2="296.1505" y2="-344.1609" gradientTransform="matrix(1 0 0 -1 -289.5 -307.5)">
								<stop  offset="0" style="stop-color:#450077"/>
								<stop  offset="0.1464" style="stop-color:#5B1493"/>
								<stop  offset="0.328" style="stop-color:#732BB2"/>
								<stop  offset="0.524" style="stop-color:#450077"/>
								<stop  offset="0.7298" style="stop-color:#732BB2"/>
								<stop  offset="1" style="stop-color:#450077"/>
							</linearGradient>
							<path class="st33" d="M6.6,36.7c0.1,0.9-0.4,1.7-0.4,1.7c0,0-0.8-0.9-0.8-1.9c0-1,0.7-1.6,0.7-1.6
								C6.1,34.9,6.6,35.8,6.6,36.7z"/>
							
								<linearGradient id="SVGID_35_" gradientUnits="userSpaceOnUse" x1="292.3354" y1="-345.2504" x2="295.7619" y2="-345.2504" gradientTransform="matrix(1 0 0 -1 -289.5 -307.5)">
								<stop  offset="0" style="stop-color:#450077"/>
								<stop  offset="0.1464" style="stop-color:#5B1493"/>
								<stop  offset="0.328" style="stop-color:#732BB2"/>
								<stop  offset="0.524" style="stop-color:#450077"/>
								<stop  offset="0.7298" style="stop-color:#732BB2"/>
								<stop  offset="1" style="stop-color:#450077"/>
							</linearGradient>
							<path class="st34" d="M4.5,38.5c1,0.4,1.8-0.1,1.8-0.1c0,0-0.8-0.8-1.7-1.2C3.7,36.7,2.8,37,2.8,37C2.8,37,3.5,38.1,4.5,38.5
								z"/>
						</g>
						<g>
							
								<linearGradient id="SVGID_36_" gradientUnits="userSpaceOnUse" x1="293.6559" y1="-342.1958" x2="294.8698" y2="-342.1958" gradientTransform="matrix(1 0 0 -1 -289.5 -307.5)">
								<stop  offset="0" style="stop-color:#450077"/>
								<stop  offset="0.1464" style="stop-color:#5B1493"/>
								<stop  offset="0.328" style="stop-color:#732BB2"/>
								<stop  offset="0.524" style="stop-color:#450077"/>
								<stop  offset="0.7298" style="stop-color:#732BB2"/>
								<stop  offset="1" style="stop-color:#450077"/>
							</linearGradient>
							<path class="st35" d="M5.4,34.8c-0.1,0.9-0.7,1.6-0.7,1.6c0,0-0.6-1-0.5-2c0.1-1,0.9-1.4,0.9-1.4C5.1,33,5.4,33.9,5.4,34.8z"
								/>
							
								<linearGradient id="SVGID_37_" gradientUnits="userSpaceOnUse" x1="291.0823" y1="-342.9477" x2="294.1873" y2="-342.9477" gradientTransform="matrix(1 0 0 -1 -289.5 -307.5)">
								<stop  offset="0" style="stop-color:#450077"/>
								<stop  offset="0.1464" style="stop-color:#5B1493"/>
								<stop  offset="0.328" style="stop-color:#732BB2"/>
								<stop  offset="0.524" style="stop-color:#450077"/>
								<stop  offset="0.7298" style="stop-color:#732BB2"/>
								<stop  offset="1" style="stop-color:#450077"/>
							</linearGradient>
							<path class="st36" d="M3,36.2c0.9,0.5,1.7,0.2,1.7,0.2c0,0-0.6-1-1.4-1.5c-0.8-0.5-1.7-0.5-1.7-0.5C1.6,34.4,2,35.6,3,36.2z"
								/>
						</g>
						<g>
							
								<linearGradient id="SVGID_38_" gradientUnits="userSpaceOnUse" x1="292.7178" y1="-340.0552" x2="294.0336" y2="-340.0552" gradientTransform="matrix(1 0 0 -1 -289.5 -307.5)">
								<stop  offset="0" style="stop-color:#450077"/>
								<stop  offset="0.1464" style="stop-color:#5B1493"/>
								<stop  offset="0.328" style="stop-color:#732BB2"/>
								<stop  offset="0.524" style="stop-color:#450077"/>
								<stop  offset="0.7298" style="stop-color:#732BB2"/>
								<stop  offset="1" style="stop-color:#450077"/>
							</linearGradient>
							<path class="st37" d="M4.4,32.7c-0.2,0.9-0.9,1.4-0.9,1.4c0,0-0.5-1.1-0.1-2c0.3-0.9,1.1-1.2,1.1-1.2
								C4.5,30.9,4.7,31.9,4.4,32.7z"/>
							
								<linearGradient id="SVGID_39_" gradientUnits="userSpaceOnUse" x1="290.2855" y1="-340.4392" x2="292.9964" y2="-340.4392" gradientTransform="matrix(1 0 0 -1 -289.5 -307.5)">
								<stop  offset="0" style="stop-color:#450077"/>
								<stop  offset="0.1464" style="stop-color:#5B1493"/>
								<stop  offset="0.328" style="stop-color:#732BB2"/>
								<stop  offset="0.524" style="stop-color:#450077"/>
								<stop  offset="0.7298" style="stop-color:#732BB2"/>
								<stop  offset="1" style="stop-color:#450077"/>
							</linearGradient>
							<path class="st38" d="M1.8,33.7c0.8,0.7,1.7,0.5,1.7,0.5c0,0-0.4-1-1.1-1.7c-0.7-0.7-1.6-0.8-1.6-0.7C0.8,31.7,1,33,1.8,33.7
								z"/>
						</g>
						<g>
							
								<linearGradient id="SVGID_40_" gradientUnits="userSpaceOnUse" x1="292.0976" y1="-337.7869" x2="293.6799" y2="-337.7869" gradientTransform="matrix(1 0 0 -1 -289.5 -307.5)">
								<stop  offset="0" style="stop-color:#450077"/>
								<stop  offset="0.1464" style="stop-color:#5B1493"/>
								<stop  offset="0.328" style="stop-color:#732BB2"/>
								<stop  offset="0.524" style="stop-color:#450077"/>
								<stop  offset="0.7298" style="stop-color:#732BB2"/>
								<stop  offset="1" style="stop-color:#450077"/>
							</linearGradient>
							<path class="st39" d="M3.8,30.6c-0.4,0.8-1.2,1.2-1.2,1.2c0,0-0.3-1.1,0.2-2c0.5-0.8,1.3-1,1.3-1C4.2,28.8,4.2,29.8,3.8,30.6
								z"/>
							
								<linearGradient id="SVGID_41_" gradientUnits="userSpaceOnUse" x1="289.9581" y1="-337.838" x2="292.2057" y2="-337.838" gradientTransform="matrix(1 0 0 -1 -289.5 -307.5)">
								<stop  offset="0" style="stop-color:#450077"/>
								<stop  offset="0.1464" style="stop-color:#5B1493"/>
								<stop  offset="0.328" style="stop-color:#732BB2"/>
								<stop  offset="0.524" style="stop-color:#450077"/>
								<stop  offset="0.7298" style="stop-color:#732BB2"/>
								<stop  offset="1" style="stop-color:#450077"/>
							</linearGradient>
							<path class="st40" d="M1.2,31c0.7,0.8,1.6,0.8,1.5,0.8c0,0-0.2-1.1-0.8-1.9c-0.6-0.8-1.4-1-1.4-1C0.4,28.9,0.5,30.2,1.2,31z"
								/>
						</g>
						<g>
							
								<linearGradient id="SVGID_42_" gradientUnits="userSpaceOnUse" x1="291.7854" y1="-335.4675" x2="293.7738" y2="-335.4675" gradientTransform="matrix(1 0 0 -1 -289.5 -307.5)">
								<stop  offset="0" style="stop-color:#450077"/>
								<stop  offset="0.1464" style="stop-color:#5B1493"/>
								<stop  offset="0.328" style="stop-color:#732BB2"/>
								<stop  offset="0.524" style="stop-color:#450077"/>
								<stop  offset="0.7298" style="stop-color:#732BB2"/>
								<stop  offset="1" style="stop-color:#450077"/>
							</linearGradient>
							<path class="st41" d="M3.6,28.3c-0.5,0.7-1.3,1-1.3,1c0,0-0.1-1.2,0.5-1.9c0.6-0.8,1.5-0.8,1.5-0.8
								C4.3,26.6,4.2,27.6,3.6,28.3z"/>
							
								<linearGradient id="SVGID_43_" gradientUnits="userSpaceOnUse" x1="290.0763" y1="-335.1679" x2="291.8243" y2="-335.1679" gradientTransform="matrix(1 0 0 -1 -289.5 -307.5)">
								<stop  offset="0" style="stop-color:#450077"/>
								<stop  offset="0.1464" style="stop-color:#5B1493"/>
								<stop  offset="0.328" style="stop-color:#732BB2"/>
								<stop  offset="0.524" style="stop-color:#450077"/>
								<stop  offset="0.7298" style="stop-color:#732BB2"/>
								<stop  offset="1" style="stop-color:#450077"/>
							</linearGradient>
							<path class="st42" d="M0.9,28.3c0.5,0.9,1.4,1,1.4,1c0,0-0.1-1.1-0.5-2C1.4,26.4,0.6,26,0.6,26C0.6,26,0.4,27.4,0.9,28.3z"/>
						</g>
						<g>
							
								<linearGradient id="SVGID_44_" gradientUnits="userSpaceOnUse" x1="291.8347" y1="-333.1235" x2="294.2531" y2="-333.1235" gradientTransform="matrix(1 0 0 -1 -289.5 -307.5)">
								<stop  offset="0" style="stop-color:#450077"/>
								<stop  offset="0.1464" style="stop-color:#5B1493"/>
								<stop  offset="0.328" style="stop-color:#732BB2"/>
								<stop  offset="0.524" style="stop-color:#450077"/>
								<stop  offset="0.7298" style="stop-color:#732BB2"/>
								<stop  offset="1" style="stop-color:#450077"/>
							</linearGradient>
							<path class="st43" d="M3.8,26c-0.6,0.6-1.5,0.8-1.5,0.8c0,0,0.1-1.2,0.9-1.8c0.7-0.6,1.6-0.5,1.6-0.5
								C4.7,24.5,4.5,25.4,3.8,26z"/>
							
								<linearGradient id="SVGID_45_" gradientUnits="userSpaceOnUse" x1="290.5549" y1="-332.5124" x2="291.906" y2="-332.5124" gradientTransform="matrix(1 0 0 -1 -289.5 -307.5)">
								<stop  offset="0" style="stop-color:#450077"/>
								<stop  offset="0.1464" style="stop-color:#5B1493"/>
								<stop  offset="0.328" style="stop-color:#732BB2"/>
								<stop  offset="0.524" style="stop-color:#450077"/>
								<stop  offset="0.7298" style="stop-color:#732BB2"/>
								<stop  offset="1" style="stop-color:#450077"/>
							</linearGradient>
							<path class="st44" d="M1.2,25.5c0.3,1,1.2,1.3,1.2,1.3c0,0,0.1-1.1-0.1-2.1c-0.3-1-1-1.5-1-1.5C1.3,23.2,0.8,24.5,1.2,25.5z"
								/>
						</g>
						<g>
							
								<linearGradient id="SVGID_46_" gradientUnits="userSpaceOnUse" x1="292.3206" y1="-330.8071" x2="295.1278" y2="-330.8071" gradientTransform="matrix(1 0 0 -1 -289.5 -307.5)">
								<stop  offset="0" style="stop-color:#450077"/>
								<stop  offset="0.1464" style="stop-color:#5B1493"/>
								<stop  offset="0.328" style="stop-color:#732BB2"/>
								<stop  offset="0.524" style="stop-color:#450077"/>
								<stop  offset="0.7298" style="stop-color:#732BB2"/>
								<stop  offset="1" style="stop-color:#450077"/>
							</linearGradient>
							<path class="st45" d="M4.4,23.8c-0.7,0.5-1.6,0.5-1.6,0.5c0,0,0.3-1.1,1.2-1.7c0.8-0.5,1.6-0.2,1.6-0.2
								C5.6,22.4,5.2,23.3,4.4,23.8z"/>
							
								<linearGradient id="SVGID_47_" gradientUnits="userSpaceOnUse" x1="291.4125" y1="-329.9299" x2="292.6339" y2="-329.9299" gradientTransform="matrix(1 0 0 -1 -289.5 -307.5)">
								<stop  offset="0" style="stop-color:#450077"/>
								<stop  offset="0.1464" style="stop-color:#5B1493"/>
								<stop  offset="0.328" style="stop-color:#732BB2"/>
								<stop  offset="0.524" style="stop-color:#450077"/>
								<stop  offset="0.7298" style="stop-color:#732BB2"/>
								<stop  offset="1" style="stop-color:#450077"/>
							</linearGradient>
							<path class="st46" d="M1.9,22.8c0.1,1.1,0.9,1.5,0.9,1.5c0,0,0.3-1.1,0.3-2.1c-0.1-1-0.7-1.7-0.7-1.7
								C2.5,20.5,1.8,21.8,1.9,22.8z"/>
						</g>
						<g>
							
								<linearGradient id="SVGID_48_" gradientUnits="userSpaceOnUse" x1="293.2632" y1="-328.6009" x2="296.4121" y2="-328.6009" gradientTransform="matrix(1 0 0 -1 -289.5 -307.5)">
								<stop  offset="0" style="stop-color:#450077"/>
								<stop  offset="0.1464" style="stop-color:#5B1493"/>
								<stop  offset="0.328" style="stop-color:#732BB2"/>
								<stop  offset="0.524" style="stop-color:#450077"/>
								<stop  offset="0.7298" style="stop-color:#732BB2"/>
								<stop  offset="1" style="stop-color:#450077"/>
							</linearGradient>
							<path class="st47" d="M5.4,21.7c-0.8,0.4-1.7,0.2-1.7,0.2c0,0,0.6-1.1,1.5-1.5c0.9-0.4,1.7,0.1,1.7,0.1
								C6.9,20.5,6.3,21.3,5.4,21.7z"/>
							
								<linearGradient id="SVGID_49_" gradientUnits="userSpaceOnUse" x1="292.6818" y1="-327.4789" x2="294.0076" y2="-327.4789" gradientTransform="matrix(1 0 0 -1 -289.5 -307.5)">
								<stop  offset="0" style="stop-color:#450077"/>
								<stop  offset="0.1464" style="stop-color:#5B1493"/>
								<stop  offset="0.328" style="stop-color:#732BB2"/>
								<stop  offset="0.524" style="stop-color:#450077"/>
								<stop  offset="0.7298" style="stop-color:#732BB2"/>
								<stop  offset="1" style="stop-color:#450077"/>
							</linearGradient>
							<path class="st48" d="M3.2,20.2c-0.1,1.1,0.6,1.7,0.6,1.7c0,0,0.5-1,0.7-2.1c0.1-1-0.3-1.8-0.3-1.8C4.2,18,3.2,19.1,3.2,20.2
								z"/>
						</g>
						<g>
							
								<linearGradient id="SVGID_50_" gradientUnits="userSpaceOnUse" x1="294.6805" y1="-326.5805" x2="298.1288" y2="-326.5805" gradientTransform="matrix(1 0 0 -1 -289.5 -307.5)">
								<stop  offset="0" style="stop-color:#450077"/>
								<stop  offset="0.1464" style="stop-color:#5B1493"/>
								<stop  offset="0.328" style="stop-color:#732BB2"/>
								<stop  offset="0.524" style="stop-color:#450077"/>
								<stop  offset="0.7298" style="stop-color:#732BB2"/>
								<stop  offset="1" style="stop-color:#450077"/>
							</linearGradient>
							<path class="st49" d="M6.9,19.7C6,20,5.2,19.6,5.2,19.6c0,0,0.8-1,1.8-1.2c1-0.2,1.7,0.3,1.7,0.3C8.6,18.7,7.8,19.5,6.9,19.7
								z"/>
							
								<linearGradient id="SVGID_51_" gradientUnits="userSpaceOnUse" x1="294.3694" y1="-325.2326" x2="296.0382" y2="-325.2326" gradientTransform="matrix(1 0 0 -1 -289.5 -307.5)">
								<stop  offset="0" style="stop-color:#450077"/>
								<stop  offset="0.1464" style="stop-color:#5B1493"/>
								<stop  offset="0.328" style="stop-color:#732BB2"/>
								<stop  offset="0.524" style="stop-color:#450077"/>
								<stop  offset="0.7298" style="stop-color:#732BB2"/>
								<stop  offset="1" style="stop-color:#450077"/>
							</linearGradient>
							<path class="st50" d="M5,17.9c-0.3,1.1,0.3,1.8,0.2,1.8c0,0,0.8-0.9,1.1-2c0.4-1,0.1-1.9,0.1-1.9C6.4,15.8,5.3,16.8,5,17.9z"
								/>
						</g>
					</g>
					<g>
						
							<linearGradient id="SVGID_52_" gradientUnits="userSpaceOnUse" x1="291.7753" y1="-337.6081" x2="306.2743" y2="-337.6081" gradientTransform="matrix(1 0 0 -1 -289.5 -307.5)">
							<stop  offset="0" style="stop-color:#450077"/>
							<stop  offset="0.1464" style="stop-color:#5B1493"/>
							<stop  offset="0.328" style="stop-color:#732BB2"/>
							<stop  offset="0.524" style="stop-color:#450077"/>
							<stop  offset="0.7298" style="stop-color:#732BB2"/>
							<stop  offset="1" style="stop-color:#450077"/>
						</linearGradient>
						<path class="st51" d="M16.8,42.7l0-0.2c-1.7,0.2-3.3,0-4.9-0.5c-1.6-0.5-3-1.3-4.3-2.4c-2.7-2.2-4.4-5.3-4.9-8.9
							c-0.4-2.9-0.2-5.4,0.6-7.6c0.8-2.3,2.3-4.2,4.3-5.4l-0.1-0.2C5.3,18.8,3.9,20.7,3,23c-0.8,2.2-1,4.8-0.6,7.7
							c0.5,3.6,2.2,6.7,4.9,9c1.3,1.1,2.8,1.9,4.4,2.4C13.4,42.6,15.1,42.8,16.8,42.7z"/>
					</g>
				</g>
			</g>
			
				<linearGradient id="SVGID_53_" gradientUnits="userSpaceOnUse" x1="304.4187" y1="-350.2535" x2="307.4623" y2="-350.2535" gradientTransform="matrix(1 0 0 -1 -289.5 -307.5)">
				<stop  offset="0" style="stop-color:#450077"/>
				<stop  offset="0.1464" style="stop-color:#5B1493"/>
				<stop  offset="0.328" style="stop-color:#732BB2"/>
				<stop  offset="0.524" style="stop-color:#450077"/>
				<stop  offset="0.7298" style="stop-color:#732BB2"/>
				<stop  offset="1" style="stop-color:#450077"/>
			</linearGradient>
			<polygon class="st52" points="16.4,41.6 14.9,42.8 16.4,43.9 18,42.8 			"/>
		</g>
		<g>
			
				<linearGradient id="SVGID_54_" gradientUnits="userSpaceOnUse" x1="301.292" y1="-335.4747" x2="310.9497" y2="-335.4747" gradientTransform="matrix(1 0 0 -1 -289.5 -307.5)">
				<stop  offset="0" style="stop-color:#450077"/>
				<stop  offset="0.1464" style="stop-color:#5B1493"/>
				<stop  offset="0.328" style="stop-color:#732BB2"/>
				<stop  offset="0.524" style="stop-color:#450077"/>
				<stop  offset="0.7298" style="stop-color:#732BB2"/>
				<stop  offset="1" style="stop-color:#450077"/>
			</linearGradient>
			<path class="st53" d="M21.4,26.9l-3.6-0.2l-1.3-3.3l-1.3,3.3l-3.6,0.2l2.8,2.2l-0.9,3.4l3-2l3,2l-0.9-3.4L21.4,26.9z M19.5,32.4
				L19.5,32.4l-2.8-3.8v2l0,0l-2.8,1.8l2.8-3.8l-2,0.5l0,0L12,27l4.6,1.6l-1.2-1.7l0,0l1.2-3.2l0,0v4.9l1.2-1.7l3.4,0.2l0,0
				l-4.6,1.6l2,0.5L19.5,32.4z"/>
			<g>
				<path class="st54" d="M19.7,32.7l-3.1-2l-3.1,2l1-3.5l-2.8-2.3l3.7-0.2l1.3-3.4l1.3,3.4l3.7,0.2l-2.8,2.3L19.7,32.7z M19.5,32.5
					L19.5,32.5L19.5,32.5z M19.5,32.5L19,30.4L19.5,32.5z M13.7,32.5l2.9-1.9l2.8,1.8l0,0l-2.8-3.7v1.8L13.7,32.5z M12.9,27.7
					l1.7,1.4l0,0l-0.9,3.2l2.8-3.7l-1.9,0.5l0-0.1L12.9,27.7z M16.6,28.7L14,32.2l2.6-1.7V28.7z M16.7,28.6l2.6,3.5l-0.8-3
					L16.7,28.6z M16.8,28.5l1.8,0.5l0,0.1l0,0l2.6-2.1h0L16.8,28.5z M12.3,27.1l2.4,1.9l1.8-0.5L12.3,27.1z M12,26.9L12,26.9
					l4.5,1.5l-1.2-1.7L12,26.9z M17.8,26.9l-1.1,1.6L21,27L17.8,26.9z M16.7,23.6v4.8l1.1-1.6h0.1l0,0L16.7,23.6z M15.5,26.8
					l1.1,1.6v-4.5L15.5,26.8z M21.3,26.9L21.3,26.9L21.3,26.9L21.3,26.9z"/>
			</g>
		</g>
	</g>
</g>
</svg>
